<svg xmlns="http://www.w3.org/2000/svg" xmlns:xlink="http://www.w3.org/1999/xlink" width="150" zoomAndPan="magnify" viewBox="0 0 112.5 112.499997" height="150" preserveAspectRatio="xMidYMid meet" version="1.0"><defs><clipPath id="a668fc00ad"><path d="M 16.0625 12.542969 L 95.957031 12.542969 L 95.957031 100.652344 L 16.0625 100.652344 Z M 16.0625 12.542969 " clip-rule="nonzero"/></clipPath><clipPath id="e769294240"><path d="M 16.0625 12.542969 L 95 12.542969 L 95 79 L 16.0625 79 Z M 16.0625 12.542969 " clip-rule="nonzero"/></clipPath><clipPath id="744c4ce7a1"><path d="M 55 34 L 95.957031 34 L 95.957031 79 L 55 79 Z M 55 34 " clip-rule="nonzero"/></clipPath><clipPath id="42a9b35f05"><path d="M 55 91.101562 L 57 91.101562 L 57 93.105469 L 55 93.105469 Z M 55 91.101562 " clip-rule="nonzero"/></clipPath><clipPath id="cef8392daa"><path d="M 56 91.101562 C 55.449219 91.101562 55 91.550781 55 92.101562 C 55 92.65625 55.449219 93.105469 56 93.105469 C 56.554688 93.105469 57 92.65625 57 92.101562 C 57 91.550781 56.554688 91.101562 56 91.101562 Z M 56 91.101562 " clip-rule="nonzero"/></clipPath></defs><g clip-path="url(#a668fc00ad)"><path fill="#283593" d="M 53.714844 13.347656 C 55.136719 12.550781 56.886719 12.550781 58.304688 13.347656 C 65.320312 17.28125 86.441406 29.113281 93.460938 33.046875 C 94.882812 33.839844 95.753906 35.308594 95.753906 36.898438 C 95.753906 44.761719 95.753906 68.429688 95.753906 76.292969 C 95.753906 77.882812 94.882812 79.351562 93.460938 80.148438 C 86.441406 84.078125 65.324219 95.914062 58.304688 99.84375 C 56.882812 100.640625 55.132812 100.640625 53.714844 99.84375 C 46.699219 95.914062 25.578125 84.078125 18.558594 80.148438 C 17.140625 79.351562 16.265625 77.882812 16.265625 76.292969 C 16.265625 68.429688 16.265625 44.765625 16.265625 36.902344 C 16.265625 35.308594 17.140625 33.839844 18.5625 33.046875 C 25.578125 29.113281 46.699219 17.28125 53.714844 13.347656 Z M 53.714844 13.347656 " fill-opacity="1" fill-rule="evenodd"/></g><g clip-path="url(#e769294240)"><path fill="#5c6bc0" d="M 16.902344 78.320312 C 16.347656 77.574219 16.265625 76.871094 16.265625 75.917969 C 16.265625 68.101562 16.265625 44.574219 16.265625 36.753906 C 16.265625 35.171875 17.140625 33.710938 18.554688 32.917969 C 25.546875 29.011719 46.597656 17.246094 53.589844 13.335938 C 55.003906 12.542969 56.921875 12.5625 58.339844 13.351562 C 65.332031 17.261719 86.308594 28.925781 93.300781 32.835938 C 93.867188 33.152344 94.296875 33.535156 94.683594 34.035156 Z M 16.902344 78.320312 " fill-opacity="1" fill-rule="evenodd"/></g><path fill="#ffffff" d="M 56.011719 27.367188 C 72.175781 27.367188 85.296875 40.464844 85.296875 56.597656 C 85.296875 72.730469 72.175781 85.828125 56.011719 85.828125 C 39.847656 85.828125 26.726562 72.730469 26.726562 56.597656 C 26.726562 40.464844 39.847656 27.367188 56.011719 27.367188 Z M 56.011719 41.980469 C 64.089844 41.980469 70.652344 48.527344 70.652344 56.597656 C 70.652344 64.660156 64.089844 71.210938 56.011719 71.210938 C 47.929688 71.210938 41.367188 64.660156 41.367188 56.597656 C 41.367188 48.527344 47.929688 41.980469 56.011719 41.980469 Z M 56.011719 41.980469 " fill-opacity="1" fill-rule="evenodd"/><g clip-path="url(#744c4ce7a1)"><path fill="#3949ab" d="M 94.679688 34.058594 C 95.757812 35.066406 95.738281 36.585938 95.738281 37.78125 C 95.738281 45.707031 95.667969 68.242188 95.753906 76.167969 C 95.761719 76.992188 95.488281 77.863281 95.078125 78.519531 L 55.160156 56.597656 Z M 94.679688 34.058594 " fill-opacity="1" fill-rule="evenodd"/></g><g clip-path="url(#42a9b35f05)"><g clip-path="url(#cef8392daa)"><path fill="#283593" d="M 55 91.101562 L 57 91.101562 L 57 93.105469 L 55 93.105469 Z M 55 91.101562 " fill-opacity="1" fill-rule="nonzero"/></g></g></svg>