<svg xmlns="http://www.w3.org/2000/svg" xmlns:xlink="http://www.w3.org/1999/xlink" width="150" zoomAndPan="magnify" viewBox="0 0 112.5 112.499997" height="150" preserveAspectRatio="xMidYMid meet" version="1.0"><path fill="#1572b6" d="M 86.980469 89.457031 L 93.675781 14.453125 L 93.765625 13.46875 L 18.296875 13.46875 L 18.386719 14.453125 L 25.074219 89.46875 L 25.128906 90.09375 L 25.730469 90.261719 L 55.746094 98.59375 L 56.226562 98.59375 L 86.324219 90.246094 L 86.925781 90.082031 Z M 86.980469 89.457031 " fill-opacity="1" fill-rule="evenodd"/><path fill="#35a8db" d="M 87.949219 18.789062 L 56.03125 18.789062 L 56.03125 93.125 L 81.953125 85.9375 Z M 87.949219 18.789062 " fill-opacity="1" fill-rule="evenodd"/><path fill="#e9e9e8" d="M 55.996094 38.761719 L 33.484375 48.136719 L 34.230469 57.417969 L 55.996094 48.113281 L 79.148438 38.214844 L 80.105469 28.71875 Z M 55.996094 38.761719 " fill-opacity="1" fill-rule="evenodd"/><path fill="#e9e9e8" d="M 55.996094 28.71875 L 80.105469 28.71875 L 79.917969 30.597656 L 79.726562 32.476562 L 79.539062 34.355469 L 79.347656 36.238281 L 79.15625 38.117188 L 79.148438 38.214844 L 32.628906 38.214844 L 32.597656 37.945312 L 32.40625 36.40625 L 32.21875 34.871094 L 31.835938 31.792969 L 31.648438 30.257812 L 31.457031 28.71875 Z M 55.996094 28.71875 " fill-opacity="1" fill-rule="evenodd"/><path fill="#e9e9e8" d="M 33.519531 48.136719 L 78.328125 48.136719 L 77.511719 57.523438 L 34.265625 57.417969 Z M 33.519531 48.136719 " fill-opacity="1" fill-rule="evenodd"/><path fill="#e9e9e8" d="M 34.917969 62.648438 L 44.722656 62.652344 L 45.359375 70.328125 L 55.996094 72.964844 L 66.914062 69.902344 L 67.652344 57.347656 L 77.542969 57.191406 L 75.769531 77.582031 L 56.03125 83.34375 L 36.152344 77.476562 Z M 34.917969 62.648438 " fill-opacity="1" fill-rule="evenodd"/><path fill="#fffffe" d="M 56.03125 48.097656 L 79.148438 38.214844 L 80.105469 28.71875 L 56.03125 38.746094 Z M 56.03125 48.097656 " fill-opacity="1" fill-rule="evenodd"/><path fill="#fffffe" d="M 56.03125 28.71875 L 80.105469 28.71875 L 79.917969 30.597656 L 79.726562 32.476562 L 79.539062 34.355469 L 79.347656 36.238281 L 79.15625 38.117188 L 79.148438 38.214844 L 56.03125 38.214844 Z M 56.03125 28.71875 " fill-opacity="1" fill-rule="evenodd"/><path fill="#fffffe" d="M 56.03125 48.136719 L 78.328125 48.136719 L 77.511719 57.523438 L 56.03125 57.472656 Z M 56.03125 48.136719 " fill-opacity="1" fill-rule="evenodd"/><path fill="#fffffe" d="M 56.03125 72.953125 L 66.914062 69.902344 L 67.652344 57.347656 L 77.542969 57.191406 L 75.769531 77.582031 L 56.03125 83.34375 Z M 56.03125 72.953125 " fill-opacity="1" fill-rule="evenodd"/></svg>