<svg xmlns="http://www.w3.org/2000/svg" xmlns:xlink="http://www.w3.org/1999/xlink" width="500" zoomAndPan="magnify" viewBox="0 0 375 374.999991" height="500" preserveAspectRatio="xMidYMid meet" version="1.0"><defs><clipPath id="e4119783ab"><path d="M 181.980469 274.226562 L 187.230469 274.226562 L 187.230469 279.476562 L 181.980469 279.476562 Z M 181.980469 274.226562 " clip-rule="nonzero"/></clipPath><clipPath id="5f3719c150"><path d="M 55.339844 65.289062 L 308.839844 65.289062 L 308.839844 309.789062 L 55.339844 309.789062 Z M 55.339844 65.289062 " clip-rule="nonzero"/></clipPath></defs><g clip-path="url(#e4119783ab)"><path fill="#000000" d="M 184.605469 274.226562 C 183.160156 274.226562 181.980469 275.402344 181.980469 276.851562 C 181.980469 278.296875 183.160156 279.476562 184.605469 279.476562 C 186.054688 279.476562 187.230469 278.296875 187.230469 276.851562 C 187.230469 275.402344 186.054688 274.226562 184.605469 274.226562 Z M 184.605469 274.339844 C 185.996094 274.339844 187.117188 275.460938 187.117188 276.851562 C 187.117188 278.238281 185.996094 279.363281 184.605469 279.363281 C 183.21875 279.363281 182.097656 278.238281 182.097656 276.851562 C 182.097656 275.460938 183.21875 274.339844 184.605469 274.339844 Z M 184.605469 274.339844 " fill-opacity="1" fill-rule="nonzero"/></g><g clip-path="url(#5f3719c150)"><path fill="#ffffff" d="M 144.667969 308.746094 C 144.820312 308.554688 145.011719 307.109375 145.09375 305.535156 C 145.21875 303.121094 145.375 302.386719 146.089844 300.859375 C 146.882812 299.171875 148.957031 296.800781 149.625 296.820312 C 150.105469 296.832031 151.707031 299.230469 153.695312 302.910156 C 154.742188 304.855469 155.789062 306.785156 156.015625 307.199219 C 156.246094 307.617188 156.785156 308.046875 157.210938 308.15625 C 157.886719 308.324219 158.109375 308.203125 158.886719 307.257812 C 159.378906 306.65625 161.683594 303.808594 164.011719 300.933594 C 168.539062 295.332031 172.488281 291.191406 174.070312 290.386719 C 175.488281 289.667969 177.144531 289.371094 184.234375 288.570312 C 193.085938 287.570312 202.59375 285.902344 211.367188 283.8125 C 216.664062 282.550781 218.078125 282.230469 220.308594 281.785156 C 222.273438 281.394531 227.734375 281.320312 265.566406 281.179688 C 308.347656 281.019531 308.589844 281.015625 308.589844 280.460938 C 308.589844 279.90625 308.355469 279.902344 270.175781 279.761719 L 231.761719 279.625 L 233.332031 278.886719 C 236.269531 277.507812 239 274.308594 239.757812 271.351562 L 240.121094 269.933594 L 244.183594 270.167969 C 246.417969 270.296875 252.457031 270.394531 257.601562 270.378906 C 266.730469 270.355469 267 270.335938 268.441406 269.710938 C 273.289062 267.601562 275.761719 259.132812 275.417969 245.785156 C 275.277344 240.320312 275.027344 239.253906 273.605469 238.136719 C 273.046875 237.699219 272.585938 237.566406 271.957031 237.667969 C 271.242188 237.785156 271.027344 237.695312 270.792969 237.179688 C 270.042969 235.527344 266.753906 235.078125 255.367188 235.0625 C 250.988281 235.058594 246.605469 234.9375 245.625 234.796875 C 243.890625 234.542969 241.617188 233.605469 240.351562 232.617188 C 239.726562 232.132812 239.734375 232.128906 241.023438 232.230469 C 243.113281 232.394531 248.355469 231.71875 250.515625 231 C 254.136719 229.800781 257.460938 227.613281 260.554688 224.402344 C 263.679688 221.160156 265.460938 218.144531 266.390625 214.542969 C 267.285156 211.085938 266.929688 203.496094 265.261719 190.503906 C 264.867188 187.429688 264.367188 183.410156 264.148438 181.5625 C 263.230469 173.878906 260.140625 157.761719 258.421875 151.710938 C 255.988281 143.144531 252.914062 138.183594 248.734375 136.0625 C 247.605469 135.492188 243.601562 134.210938 242.941406 134.210938 C 242.863281 134.210938 242.796875 133.550781 242.792969 132.746094 C 242.78125 127.773438 239.808594 123.507812 232.324219 117.726562 C 224.574219 111.738281 222.855469 109.203125 221.421875 101.644531 C 220.195312 95.160156 219.335938 92.027344 218.089844 89.5 C 213.902344 81.019531 204.136719 70.726562 197.429688 67.726562 C 196.488281 67.304688 194.527344 66.660156 193.070312 66.292969 C 189.445312 65.382812 182.886719 65.367188 179.617188 66.261719 C 170.992188 68.621094 164.332031 75.722656 157.550781 89.792969 C 154.398438 96.332031 152.910156 101.296875 152.652344 106.132812 C 152.449219 109.945312 152.828125 112.523438 154.132812 116.191406 C 156.4375 122.679688 156.554688 123.195312 156.570312 126.949219 C 156.582031 129.953125 156.496094 130.648438 155.957031 131.945312 C 154.777344 134.785156 152.859375 137.28125 148.253906 141.976562 C 145.730469 144.546875 143.175781 147.277344 142.574219 148.042969 C 140.28125 150.957031 139.1875 153.835938 138.953125 157.570312 C 138.664062 162.191406 139.972656 164.988281 144.890625 170.25 C 147.808594 173.371094 148.425781 174.332031 148.425781 175.761719 C 148.425781 177.699219 145.742188 179.414062 142.300781 179.675781 C 140.0625 179.84375 139.148438 180.328125 139.734375 181.035156 C 139.941406 181.285156 140.628906 181.425781 141.648438 181.425781 C 146.0625 181.425781 150.105469 178.730469 150.148438 175.757812 C 150.175781 173.992188 149.4375 172.792969 145.9375 168.902344 C 141.945312 164.464844 140.792969 162.359375 140.609375 159.128906 C 140.449219 156.375 140.863281 154.394531 142.109375 151.960938 C 143.472656 149.300781 144.152344 148.476562 149.773438 142.730469 C 156.421875 135.929688 158.054688 133.136719 158.359375 128.023438 C 158.570312 124.414062 158.210938 122.820312 155.375 114.796875 C 154.617188 112.65625 154.460938 111.757812 154.332031 108.789062 C 154.152344 104.6875 154.738281 101.226562 156.367188 96.789062 C 157.792969 92.90625 160.796875 86.878906 161.9375 85.617188 C 163.191406 84.230469 165.296875 82.875 167.011719 82.347656 C 168.625 81.851562 170.988281 82.0625 171.875 82.78125 L 172.484375 83.277344 L 171.8125 84.398438 C 170.328125 86.871094 168.113281 89.992188 167.085938 91.046875 C 165.296875 92.894531 164.140625 95.109375 163.585938 97.757812 C 162.75 101.734375 163.523438 106 166.386719 113.257812 C 171.070312 125.113281 169.992188 130.074219 160.183594 141.894531 C 152.535156 151.105469 150.484375 154.558594 150.128906 158.808594 C 149.921875 161.273438 150.507812 163.183594 152.324219 165.945312 C 153.539062 167.789062 153.796875 168.410156 153.890625 169.691406 C 153.992188 171.101562 153.871094 171.488281 152.429688 174.410156 C 148.71875 181.933594 148.804688 185.832031 152.753906 189.152344 C 155.6875 191.621094 157.503906 193.585938 157.867188 194.6875 C 158.179688 195.632812 158.144531 195.996094 157.570312 197.828125 C 157.011719 199.605469 156.976562 199.9375 157.324219 200.160156 C 158.117188 200.667969 158.570312 200.261719 159.210938 198.460938 C 159.566406 197.464844 159.957031 196.550781 160.078125 196.425781 C 160.199219 196.300781 161.105469 196.015625 162.089844 195.785156 C 165.449219 195.003906 167.085938 193.152344 167.085938 190.128906 C 167.085938 188.257812 166.699219 187.367188 164.46875 184.097656 C 161.859375 180.277344 161.757812 179.050781 163.753906 175.328125 C 164.957031 173.089844 165.042969 172.710938 164.46875 172.234375 C 163.785156 171.667969 163.257812 172.199219 162.207031 174.5 C 160.109375 179.082031 160.269531 181.046875 163.039062 184.910156 C 165.128906 187.820312 165.476562 188.5625 165.476562 190.105469 C 165.476562 192.535156 163.9375 193.964844 160.910156 194.363281 L 159.621094 194.535156 L 159.472656 192.917969 C 159.296875 190.957031 158.597656 189.527344 156.390625 186.59375 C 153.976562 183.386719 153.402344 182.023438 153.402344 179.488281 C 153.398438 177.664062 153.519531 177.167969 154.414062 175.359375 C 155.644531 172.871094 157.015625 171.652344 163.660156 167.140625 C 169.394531 163.246094 172.0625 160.800781 173.289062 158.304688 C 174.949219 154.933594 174.667969 151.707031 172.265625 146.503906 C 170.34375 142.34375 170.15625 141.773438 169.988281 139.675781 C 169.851562 137.964844 169.980469 137.125 170.972656 133.296875 C 172.328125 128.066406 172.472656 125.421875 171.542969 122.820312 C 171.230469 121.941406 170.523438 119.902344 169.972656 118.289062 C 169.417969 116.675781 168.351562 113.8125 167.597656 111.929688 C 164.460938 104.097656 164.078125 98.988281 166.308594 94.765625 C 166.769531 93.890625 167.367188 92.976562 167.636719 92.734375 C 168.09375 92.320312 168.109375 92.382812 167.871094 93.90625 C 167.734375 94.792969 167.4375 96.3125 167.214844 97.28125 C 166.65625 99.703125 166.703125 102.429688 167.351562 104.957031 C 168.113281 107.9375 168.539062 108.648438 170.988281 111.023438 C 173.207031 113.179688 173.410156 113.535156 174.527344 117.300781 C 175.195312 119.539062 176.953125 122.078125 178.792969 123.449219 C 179.625 124.066406 181.949219 126.222656 183.960938 128.238281 C 185.972656 130.257812 188.0625 132.132812 188.597656 132.40625 C 189.152344 132.6875 190.453125 132.960938 191.589844 133.035156 C 194.296875 133.210938 194.605469 133.554688 194.605469 136.40625 C 194.605469 139.191406 194.007812 140.367188 190.699219 144.085938 C 189.3125 145.644531 187.785156 147.425781 187.308594 148.039062 C 185.425781 150.460938 184.417969 153.289062 184.410156 156.160156 C 184.40625 158.261719 183.832031 160.230469 182.75 161.851562 C 182.292969 162.535156 179.234375 165.804688 175.949219 169.117188 C 168.859375 176.269531 168.570312 176.714844 168.726562 180.308594 C 168.785156 181.613281 168.839844 184 168.855469 185.617188 C 168.878906 188.804688 168.726562 189.445312 165.703125 198.886719 C 164.964844 201.191406 164.269531 203.613281 164.160156 204.265625 L 163.964844 205.457031 L 163.355469 204.546875 C 162.394531 203.101562 161 202.582031 157.753906 202.460938 C 152.367188 202.261719 130.320312 201.25 125.320312 200.972656 C 122.554688 200.820312 116.710938 200.496094 112.332031 200.253906 C 107.953125 200.011719 104.324219 199.769531 104.269531 199.714844 C 103.976562 199.425781 107.945312 194.835938 108.488281 194.835938 C 108.613281 194.835938 109.121094 195.292969 109.613281 195.855469 C 111.953125 198.519531 115.605469 198.558594 118.574219 195.949219 C 120.019531 194.683594 120.273438 194.128906 119.867188 193.144531 C 119.429688 192.085938 117.511719 191.34375 115.226562 191.34375 L 113.515625 191.34375 L 114.21875 190.644531 C 115.789062 189.089844 116.484375 186.195312 115.421875 185.625 C 114.089844 184.910156 111.738281 185.566406 110.140625 187.097656 C 108.878906 188.304688 108.1875 189.738281 107.96875 191.582031 C 107.824219 192.824219 107.613281 193.289062 106.871094 194.007812 L 105.949219 194.902344 L 105.382812 193.785156 C 103.863281 190.8125 100.230469 189.78125 96.949219 191.390625 C 95.109375 192.292969 91.53125 195.8125 90.539062 197.699219 C 89.878906 198.953125 89.78125 199.023438 88.695312 199.023438 L 87.550781 199.023438 L 87.359375 196.332031 C 87.128906 193.03125 87.164062 192.980469 90.503906 191.773438 C 93.761719 190.601562 95.460938 189.589844 97.679688 187.515625 C 99.765625 185.5625 101.148438 183.394531 101.152344 182.070312 C 101.15625 180.886719 100.773438 180.796875 97.078125 181.128906 C 93.640625 181.433594 91.949219 181.875 90.136719 182.9375 L 88.890625 183.667969 L 89.171875 182.859375 C 89.59375 181.644531 90.363281 181.070312 94.03125 179.230469 C 98.804688 176.832031 102.175781 173.953125 101.265625 173.042969 C 100.292969 172.070312 96.75 172.566406 94.347656 174.011719 L 92.785156 174.953125 L 93.167969 174.207031 C 94.246094 172.109375 94.730469 169.640625 94.730469 166.230469 C 94.730469 162.617188 94.425781 161.589844 93.347656 161.589844 C 91.960938 161.589844 87.785156 167.675781 87.71875 169.796875 C 87.703125 170.277344 87.605469 170.980469 87.5 171.359375 C 87.308594 172.046875 87.304688 172.046875 86.929688 171.144531 C 86.523438 170.160156 85.148438 168.851562 84.519531 168.851562 C 84.304688 168.851562 83.917969 169.171875 83.660156 169.5625 C 82.957031 170.636719 83.316406 174.410156 84.382812 177.160156 L 85.203125 179.273438 L 84.308594 178.445312 C 82.625 176.890625 79.566406 175 78.734375 175 C 77.714844 175 77.671875 175.714844 78.578125 177.539062 C 79.257812 178.917969 80.277344 180.136719 83 182.84375 C 86.167969 185.992188 86.511719 186.425781 86.292969 187.015625 C 86.160156 187.375 85.960938 188.308594 85.847656 189.085938 L 85.644531 190.5 L 84.882812 189.199219 C 83.007812 186 78.695312 183.726562 74.25 183.59375 C 71.703125 183.519531 71.496094 183.785156 72.488281 185.828125 C 74.726562 190.414062 77.964844 192.949219 82.71875 193.832031 C 84.40625 194.144531 84.578125 194.246094 85.15625 195.269531 C 85.65625 196.152344 85.78125 196.8125 85.785156 198.59375 L 85.789062 200.816406 L 84.742188 199.804688 C 81.789062 196.953125 74.335938 194.90625 74.335938 196.945312 C 74.335938 197.734375 76.257812 200.320312 78.195312 202.144531 C 79.394531 203.273438 81.132812 204.488281 83.003906 205.503906 C 84.613281 206.378906 86.085938 207.230469 86.28125 207.402344 C 86.539062 207.628906 86.625 209.257812 86.613281 213.773438 L 86.601562 219.839844 L 85.746094 218.160156 C 85.273438 217.238281 84.460938 215.960938 83.941406 215.320312 C 83.121094 214.308594 83.03125 214.054688 83.273438 213.414062 C 84.042969 211.390625 83.386719 209.617188 81.203125 207.828125 C 80.054688 206.890625 79.828125 206.800781 79.222656 207.078125 C 78.71875 207.308594 78.488281 207.691406 78.355469 208.515625 C 78.257812 209.132812 78.121094 209.640625 78.050781 209.640625 C 77.59375 209.640625 71.953125 205.257812 71.972656 204.914062 C 71.976562 204.824219 72.082031 204.21875 72.203125 203.570312 C 72.59375 201.515625 71.601562 199.488281 70.574219 200.242188 C 70.132812 200.5625 70.113281 200.730469 70.410156 201.632812 C 70.597656 202.199219 70.667969 203.035156 70.566406 203.492188 L 70.382812 204.324219 L 69.230469 203.734375 C 67.816406 203.011719 65.207031 202.101562 65.042969 202.265625 C 64.972656 202.335938 64.707031 201.851562 64.449219 201.195312 C 63.542969 198.878906 61.890625 197.632812 59.71875 197.628906 C 58.597656 197.628906 58.230469 197.765625 57.550781 198.445312 C 56.613281 199.382812 56.457031 200.859375 57.15625 202.199219 C 57.671875 203.191406 57.683594 203.496094 57.195312 203.496094 C 56.480469 203.496094 55.339844 204.832031 55.339844 205.667969 C 55.339844 207.648438 59.503906 209.40625 62.132812 208.539062 C 63.386719 208.125 64.707031 206.648438 65.152344 205.15625 C 65.460938 204.128906 65.566406 204.035156 66.214844 204.1875 C 67.371094 204.464844 69.59375 205.628906 71.46875 206.945312 L 73.210938 208.171875 L 71.890625 208.664062 C 66.730469 210.585938 66.117188 215.027344 70.863281 216.101562 C 73.417969 216.683594 78.316406 216.601562 80.316406 215.945312 L 81.96875 215.402344 L 82.761719 216.351562 C 83.199219 216.875 84.054688 218.261719 84.664062 219.433594 L 85.773438 221.566406 L 83.394531 221.921875 C 77.691406 222.769531 75.773438 225.667969 79.644531 227.582031 C 83.421875 229.449219 92.027344 229.355469 95.792969 227.410156 C 97.550781 226.5 97.589844 224.226562 95.863281 223.21875 C 94.777344 222.585938 92.21875 221.945312 90.75 221.9375 C 89.824219 221.933594 89.703125 221.851562 89.703125 221.246094 C 89.703125 220.113281 90.988281 216.933594 92.09375 215.324219 L 93.128906 213.820312 L 95.484375 218.226562 C 98.953125 224.707031 105.507812 237.285156 108.902344 243.96875 C 109.789062 245.714844 110.953125 247.621094 111.492188 248.199219 C 112.339844 249.113281 112.691406 249.28125 114.144531 249.460938 C 115.070312 249.574219 115.976562 249.6875 116.164062 249.714844 C 116.867188 249.8125 116.792969 250.085938 115.964844 250.429688 C 114.589844 250.996094 112.621094 253.433594 111.328125 256.15625 C 109.9375 259.085938 107.90625 265.160156 105.488281 273.617188 L 103.769531 279.625 L 67.949219 279.695312 L 67.871094 281.160156 C 67.816406 282.171875 103.421875 281.1875 103.277344 281.648438 C 103.042969 282.414062 97.933594 300.808594 97.089844 303.929688 C 96.128906 307.476562 96.046875 308.957031 96.8125 308.957031 C 97.421875 308.957031 97.679688 308.257812 99.339844 302.113281 C 99.855469 300.191406 100.792969 296.796875 101.414062 294.570312 C 102.039062 292.339844 103.363281 287.5 104.351562 283.8125 C 107.957031 270.40625 111.140625 260.332031 112.945312 256.636719 C 114.847656 252.742188 117.835938 250.359375 120.851562 250.335938 C 122.394531 250.324219 126.957031 250.667969 127.835938 250.859375 C 128.363281 250.976562 137.625 251.800781 138.953125 251.847656 C 139.550781 251.871094 138.898438 252.019531 132.746094 253.242188 C 128.992188 253.992188 127.230469 254.664062 125.78125 255.90625 C 123.828125 257.578125 123.5625 258.390625 122.652344 265.460938 C 121.972656 270.730469 121.113281 275.9375 120.542969 278.226562 C 118.941406 284.671875 113.59375 299.621094 110.40625 306.582031 C 109.664062 308.195312 109.640625 309.097656 110.339844 309.097656 C 110.628906 309.097656 110.996094 308.941406 111.15625 308.746094 C 112.03125 307.6875 117.15625 294.609375 119.402344 287.707031 C 122.019531 279.648438 123.410156 273.238281 124.339844 264.957031 C 124.503906 263.496094 124.839844 261.449219 125.082031 260.40625 C 125.933594 256.765625 127.8125 255.757812 136.894531 254.058594 C 138.652344 253.730469 140.617188 253.183594 141.257812 252.839844 C 142.410156 252.226562 142.484375 252.222656 146.304688 252.578125 C 150.773438 252.996094 161.386719 254.03125 163.035156 254.210938 C 164.273438 254.34375 172.390625 255.03125 179.101562 255.574219 C 183.398438 255.921875 185.246094 255.78125 185.246094 255.117188 C 185.246094 254.941406 185.535156 255.074219 185.894531 255.410156 C 187.019531 256.46875 188.792969 256.253906 200.449219 253.625 C 207.082031 252.125 223.738281 248.03125 224.75 247.644531 C 226.03125 247.160156 226.59375 246.34375 226.59375 244.980469 C 226.59375 242.9375 226.3125 242.804688 220.570312 242.101562 C 217.8125 241.765625 215.1875 241.488281 214.734375 241.488281 C 214.234375 241.488281 214.015625 241.390625 214.175781 241.238281 C 214.453125 240.972656 224.15625 237.773438 225.621094 237.460938 L 226.464844 237.28125 L 227.523438 241.070312 C 230.625 252.171875 231.4375 258.839844 230.21875 263.238281 C 229.035156 267.507812 227.394531 270.054688 222.816406 274.734375 C 220.9375 276.65625 219.136719 278.742188 218.820312 279.371094 L 218.246094 280.515625 L 213.515625 281.664062 C 202.628906 284.3125 191.875 286.207031 181.476562 287.308594 C 178.710938 287.601562 175.8125 288.035156 175.035156 288.265625 C 172.949219 288.894531 171.261719 290.140625 168.644531 292.992188 C 166.613281 295.203125 160.132812 302.9375 158.195312 305.460938 C 157.835938 305.925781 157.429688 306.238281 157.292969 306.15625 C 157.160156 306.070312 156.40625 304.71875 155.621094 303.148438 C 154.835938 301.582031 153.570312 299.375 152.808594 298.246094 C 151.886719 296.882812 151.476562 296.023438 151.585938 295.679688 C 151.851562 294.835938 156.035156 291.074219 158.53125 289.429688 C 161.367188 287.5625 165.335938 285.433594 168.445312 284.105469 C 171.484375 282.808594 174.195312 282.148438 185.527344 279.929688 C 194.054688 278.261719 199.246094 277.023438 203.40625 275.65625 C 204.597656 275.265625 204.960938 275.011719 205.03125 274.523438 C 205.082031 274.160156 204.945312 273.828125 204.710938 273.738281 C 204.488281 273.652344 202.6875 274.085938 200.710938 274.703125 C 195.648438 276.28125 194.734375 276.496094 183.058594 278.808594 C 171.554688 281.089844 169.0625 281.808594 164.230469 284.242188 C 158.480469 287.136719 155.367188 289.289062 152.152344 292.578125 L 150.207031 294.570312 L 149.078125 293.496094 C 147.117188 291.625 145.898438 290.859375 140.996094 288.421875 C 135.882812 285.882812 135.484375 285.519531 135.914062 283.804688 C 136.023438 283.371094 137.015625 282.121094 138.121094 281.023438 C 139.632812 279.523438 140.710938 278.75 142.503906 277.882812 C 147.597656 275.414062 152.414062 274.335938 169.601562 271.824219 C 204.289062 266.75 213.015625 264.746094 217.933594 260.710938 C 220.046875 258.980469 220.847656 257.332031 220.648438 255.136719 C 220.480469 253.292969 219.863281 252.105469 219.074219 252.105469 C 218.367188 252.105469 218.191406 252.6875 218.652344 253.515625 C 219.152344 254.417969 219.148438 256.410156 218.648438 257.378906 C 217.132812 260.3125 210.636719 263.257812 202.007812 264.921875 C 194.808594 266.3125 185.570312 267.828125 173.792969 269.558594 C 152.941406 272.617188 147.414062 273.769531 142.40625 276.101562 C 139.707031 277.359375 137.78125 278.78125 135.929688 280.878906 C 135.183594 281.726562 134.472656 282.417969 134.351562 282.417969 C 134.230469 282.417969 133.628906 281.746094 133.011719 280.925781 C 131.972656 279.542969 130.964844 277.617188 129.347656 273.941406 C 128.296875 271.542969 126.777344 270.960938 125.40625 272.429688 C 123.910156 274.027344 123.386719 275.835938 122.542969 282.277344 C 121.796875 288.003906 120.167969 299.222656 119.574219 302.753906 C 119.269531 304.566406 119.09375 306.167969 119.183594 306.316406 C 119.273438 306.460938 119.582031 306.582031 119.867188 306.582031 C 120.496094 306.582031 120.953125 304.785156 121.8125 298.898438 C 122.128906 296.75 122.636719 293.292969 122.941406 291.21875 C 123.246094 289.144531 123.808594 285.121094 124.195312 282.277344 C 124.582031 279.433594 125.023438 276.667969 125.175781 276.132812 C 125.554688 274.804688 126.484375 273.335938 126.949219 273.335938 C 127.164062 273.335938 127.847656 274.558594 128.527344 276.144531 C 129.75 279.011719 131.359375 281.75 132.476562 282.867188 L 133.101562 283.492188 L 132.425781 283.914062 C 131.042969 284.777344 128.324219 287.789062 127.335938 289.554688 C 126.007812 291.929688 124.742188 295.890625 123.074219 302.882812 C 122.011719 307.332031 121.796875 308.617188 122.0625 308.882812 C 122.847656 309.667969 123.285156 308.652344 124.902344 302.25 C 127.523438 291.859375 128.796875 289.136719 132.5 285.976562 L 133.917969 284.765625 L 134.398438 285.824219 C 135.066406 287.296875 135.496094 287.613281 139.148438 289.332031 C 142.855469 291.074219 145.570312 292.675781 147.359375 294.167969 L 148.617188 295.21875 L 146.953125 296.824219 C 145.113281 298.59375 144.128906 300.460938 143.640625 303.101562 C 143.3125 304.878906 143.242188 307.953125 143.511719 308.65625 C 143.714844 309.183594 144.285156 309.230469 144.667969 308.746094 Z M 220.445312 279.820312 C 220.445312 279.699219 221.9375 278.078125 223.757812 276.222656 C 228.335938 271.546875 230.609375 267.976562 231.820312 263.558594 C 232.691406 260.390625 232.492188 255.480469 231.253906 249.558594 C 230.6875 246.851562 229.710938 242.847656 229.082031 240.664062 C 228.453125 238.484375 227.984375 236.667969 228.035156 236.636719 C 228.25 236.5 231.175781 235.644531 231.234375 235.703125 C 231.339844 235.808594 233.222656 244.925781 234.417969 251.128906 C 235.039062 254.355469 236.136719 259.070312 236.855469 261.605469 C 237.964844 265.511719 238.167969 266.597656 238.175781 268.726562 C 238.183594 270.835938 238.078125 271.460938 237.515625 272.59375 C 235.617188 276.421875 231.460938 278.691406 224.640625 279.621094 C 221.398438 280.066406 220.445312 280.109375 220.445312 279.820312 Z M 241.957031 268.476562 C 241.574219 268.425781 240.992188 268.363281 240.667969 268.34375 C 240.171875 268.316406 240.042969 268.074219 239.886719 266.898438 C 239.785156 266.121094 239.257812 264.078125 238.714844 262.359375 C 237.464844 258.371094 237.253906 257.449219 235.53125 248.332031 C 234.75 244.183594 233.796875 239.484375 233.414062 237.890625 C 233.03125 236.296875 232.753906 234.972656 232.800781 234.953125 C 232.84375 234.933594 233.601562 234.574219 234.484375 234.15625 L 236.089844 233.394531 L 236.105469 236.953125 C 236.125 241.03125 236.429688 242.230469 237.628906 242.925781 C 238.742188 243.574219 241.503906 243.996094 244.753906 244.015625 C 246.210938 244.027344 248.410156 244.160156 249.640625 244.320312 C 252.925781 244.738281 253.71875 244.660156 254.527344 243.851562 C 255.171875 243.210938 255.238281 242.898438 255.367188 240.015625 L 255.507812 236.878906 L 261.269531 236.917969 C 266.652344 236.949219 269.058594 237.230469 269.058594 237.828125 C 269.058594 237.941406 268.6875 238.386719 268.230469 238.824219 C 266.585938 240.398438 266.542969 240.824219 266.542969 255.347656 L 266.542969 268.550781 L 265.914062 268.691406 C 265.246094 268.839844 243.144531 268.644531 241.957031 268.476562 Z M 268.082031 263.65625 C 267.96875 261.40625 267.96875 255.589844 268.078125 250.734375 C 268.285156 241.578125 268.414062 240.628906 269.546875 239.921875 C 270.007812 239.632812 270.03125 239.921875 269.949219 244.835938 C 269.875 249.273438 269.925781 250.109375 270.292969 250.414062 C 270.53125 250.609375 270.917969 250.699219 271.148438 250.609375 C 271.503906 250.472656 271.570312 249.695312 271.570312 245.863281 C 271.570312 243.34375 271.648438 240.894531 271.742188 240.425781 C 272.019531 239.03125 272.644531 239.082031 273.296875 240.558594 C 273.839844 241.789062 273.863281 242.226562 273.726562 249.007812 C 273.566406 256.914062 273.101562 260.085938 271.589844 263.515625 C 270.839844 265.214844 269.003906 267.75 268.519531 267.75 C 268.390625 267.75 268.195312 265.90625 268.082031 263.65625 Z M 187.203125 253.929688 C 187.203125 253.707031 187.449219 253.390625 187.75 253.226562 C 188.261719 252.953125 195.8125 251.113281 201.589844 249.851562 C 204.644531 249.183594 212.109375 247.433594 218.945312 245.785156 C 224.644531 244.40625 225.28125 244.332031 225.144531 245.050781 C 225.007812 245.761719 223.566406 246.34375 219.46875 247.347656 C 207.746094 250.214844 203.710938 251.171875 197.679688 252.519531 C 189.78125 254.277344 189.910156 254.253906 188.390625 254.300781 C 187.515625 254.332031 187.203125 254.230469 187.203125 253.929688 Z M 178.261719 253.789062 C 176.496094 253.632812 174.042969 253.4375 172.8125 253.355469 C 171.585938 253.273438 170.015625 253.144531 169.324219 253.074219 C 168.628906 253.003906 166.554688 252.820312 164.710938 252.667969 C 161.382812 252.390625 155.414062 251.808594 150.324219 251.273438 C 147.425781 250.964844 142.292969 250.503906 139.429688 250.292969 C 138.429688 250.21875 136.292969 250.03125 134.679688 249.875 C 133.066406 249.714844 130.300781 249.460938 128.535156 249.300781 C 126.765625 249.144531 125.007812 248.960938 124.625 248.890625 C 124.238281 248.820312 122.289062 248.632812 120.292969 248.476562 C 118.296875 248.320312 115.804688 248.042969 114.761719 247.863281 L 112.859375 247.539062 L 111.792969 245.703125 C 111.203125 244.691406 109.371094 241.222656 107.71875 237.996094 C 106.0625 234.769531 103.671875 230.183594 102.40625 227.800781 C 101.140625 225.417969 97.96875 219.382812 95.359375 214.390625 C 92.75 209.398438 90.214844 204.621094 89.730469 203.773438 C 88.460938 201.570312 88.195312 200.996094 88.363281 200.828125 C 88.445312 200.746094 91.011719 200.816406 94.066406 200.980469 C 97.121094 201.148438 103.265625 201.464844 107.722656 201.6875 C 137.265625 203.15625 144.957031 203.539062 152.378906 203.898438 C 159.144531 204.230469 160.851562 204.394531 161.417969 204.765625 C 161.800781 205.015625 162.496094 206.058594 162.957031 207.082031 C 163.417969 208.105469 165.214844 211.960938 166.953125 215.648438 C 176.792969 236.535156 179.941406 243.285156 182.109375 248.160156 C 184.433594 253.386719 184.496094 253.585938 183.972656 253.96875 C 183.632812 254.21875 183.066406 254.3125 182.453125 254.21875 C 181.914062 254.140625 180.027344 253.945312 178.261719 253.789062 Z M 184.941406 250.546875 L 184.21875 249.160156 L 188.015625 249.15625 C 191.363281 249.148438 192.226562 249.042969 195.304688 248.25 C 200.421875 246.9375 206.601562 245.007812 207.429688 244.464844 C 208.347656 243.863281 208.390625 242.769531 207.527344 242.21875 C 206.484375 241.558594 200.5625 240.636719 197.121094 240.597656 L 195.722656 240.585938 L 197.679688 240.050781 C 199.089844 239.664062 200.292969 239.539062 202.007812 239.609375 C 204.21875 239.695312 204.519531 239.78125 206.34375 240.867188 C 208.285156 242.023438 208.359375 242.039062 214.722656 242.949219 C 218.253906 243.453125 220.832031 243.90625 220.445312 243.953125 C 219.816406 244.035156 213.441406 245.445312 201.867188 248.054688 C 194.523438 249.710938 188.210938 251.269531 187.203125 251.679688 C 186.664062 251.894531 186.097656 252.042969 185.945312 252.003906 C 185.792969 251.964844 185.339844 251.308594 184.941406 250.546875 Z M 184.851562 247.402344 C 184.09375 247.300781 183.425781 247.066406 183.363281 246.882812 C 183.289062 246.648438 183.535156 246.589844 184.179688 246.695312 C 184.691406 246.773438 186.488281 247.003906 188.179688 247.207031 L 191.253906 247.574219 L 188.738281 247.582031 C 187.355469 247.582031 185.605469 247.503906 184.851562 247.402344 Z M 186.835938 245.375 C 184.078125 245.089844 183.597656 244.972656 183.910156 244.660156 C 184.117188 244.457031 184.59375 244.296875 184.976562 244.308594 C 187.707031 244.390625 188.113281 244.304688 190.285156 243.191406 C 192.308594 242.160156 192.726562 242.046875 194.578125 242.046875 C 197.039062 242.046875 204.558594 242.808594 205.433594 243.148438 C 206.179688 243.433594 206.433594 243.324219 201.589844 244.835938 L 197.957031 245.972656 L 194.046875 245.84375 C 191.894531 245.773438 188.652344 245.5625 186.835938 245.375 Z M 182.332031 242.816406 C 182.667969 241.742188 186.59375 236.5625 188.152344 235.136719 C 189.839844 233.597656 190.695312 233.285156 194.535156 232.8125 C 197.125 232.496094 197.257812 232.445312 197.257812 231.816406 C 197.257812 231.183594 197.175781 231.152344 195.375 231.15625 C 193.210938 231.164062 190.160156 231.746094 188.90625 232.394531 C 187.402344 233.171875 186.050781 234.5625 183.664062 237.789062 C 182.386719 239.515625 181.210938 240.929688 181.058594 240.929688 C 179.675781 240.929688 183.367188 235.429688 186.445312 232.898438 C 188.390625 231.296875 193.722656 228.621094 195.3125 228.445312 C 196.246094 228.34375 197.410156 228.566406 199.914062 229.335938 C 202.933594 230.261719 203.5 230.351562 205.640625 230.238281 C 209.222656 230.050781 210.707031 229.429688 220.414062 224.070312 C 226.042969 220.964844 227.464844 219.878906 229.117188 217.449219 C 231.078125 214.558594 232.671875 213.917969 238.660156 213.601562 C 242.96875 213.375 244.191406 212.996094 244.191406 211.890625 C 244.191406 210.5 242.324219 209.941406 239.855469 210.585938 C 238.949219 210.820312 238.152344 210.957031 238.078125 210.882812 C 237.886719 210.691406 239.722656 208.851562 240.703125 208.257812 C 241.164062 207.980469 242.144531 207.664062 242.882812 207.558594 C 244.382812 207.34375 244.882812 206.722656 244.046875 206.109375 C 243.300781 205.566406 242.457031 205.636719 240.777344 206.394531 C 239.410156 207.011719 238.046875 208.15625 237.078125 209.5 C 236.71875 210 236.710938 209.941406 236.996094 208.941406 C 237.246094 208.089844 238.085938 207.0625 240.554688 204.613281 C 244.273438 200.914062 245.453125 199.347656 245.171875 198.46875 C 244.882812 197.558594 244.183594 197.894531 242.96875 199.519531 C 242.367188 200.328125 241.816406 200.933594 241.75 200.863281 C 241.53125 200.648438 242.679688 172.953125 242.960938 171.648438 C 243.269531 170.183594 241.6875 169.460938 241.242188 170.863281 C 241.144531 171.171875 240.839844 177.476562 240.566406 184.875 C 240.292969 192.273438 240.035156 198.390625 239.996094 198.464844 C 239.703125 199.007812 239.15625 188.710938 239.003906 179.75 C 238.808594 168.238281 238.914062 166.613281 240.324219 159.714844 C 240.949219 156.65625 240.898438 156.003906 240.023438 156.003906 C 239.613281 156.003906 239.390625 156.28125 239.1875 157.050781 C 238.578125 159.351562 237.761719 164.621094 237.457031 168.242188 C 237.011719 173.558594 237.289062 186.261719 238.0625 195.871094 L 238.695312 203.75 L 237.355469 205.367188 C 235.578125 207.515625 235.167969 208.546875 235.308594 210.511719 L 235.425781 212.101562 L 234.339844 212.273438 C 233.746094 212.371094 232.46875 212.804688 231.507812 213.242188 L 229.753906 214.035156 L 227.125 213.667969 C 225.679688 213.464844 222.109375 213.039062 219.191406 212.722656 C 216.269531 212.40625 212.875 212.023438 211.648438 211.875 C 210.417969 211.726562 206.058594 211.453125 201.957031 211.269531 C 193.71875 210.894531 190.132812 211.113281 188.078125 212.105469 L 186.925781 212.664062 L 186.347656 211.855469 C 184.113281 208.714844 178.558594 193.136719 177.707031 187.625 C 177.503906 186.300781 177.429688 184.628906 177.535156 183.730469 C 177.96875 180.039062 180.539062 171.726562 181.8125 169.886719 C 182.230469 169.285156 183.328125 168.109375 184.253906 167.269531 L 185.9375 165.75 L 186.34375 166.671875 C 190.554688 176.253906 194.769531 181.230469 198.683594 181.246094 C 201.136719 181.257812 204.03125 179.386719 210.015625 173.929688 C 218.332031 166.339844 225.285156 158.285156 230.082031 150.679688 C 231.96875 147.6875 236.035156 139.820312 237.199219 136.917969 C 237.84375 135.296875 237.851562 135.292969 238.855469 135.441406 C 239.410156 135.523438 240.617188 135.671875 241.539062 135.765625 C 252.539062 136.90625 255.976562 143.21875 260.941406 171.367188 C 262.46875 180.046875 264.910156 199.457031 265.316406 206.179688 C 265.523438 209.632812 265.121094 213.402344 264.292969 215.757812 C 262.65625 220.414062 257.660156 225.730469 252.453125 228.359375 C 249.167969 230.019531 247.742188 230.328125 242.371094 230.554688 C 238.230469 230.726562 237.484375 230.828125 236.640625 231.34375 C 234.949219 232.375 230.5 234.128906 226.175781 235.472656 C 223.871094 236.1875 219.578125 237.582031 216.640625 238.570312 C 210.171875 240.753906 209.265625 240.828125 207.027344 239.386719 C 204.949219 238.046875 203.714844 237.757812 201.03125 237.988281 C 196.847656 238.347656 195.089844 238.859375 191.195312 240.84375 C 189.167969 241.878906 187.417969 242.636719 187.304688 242.523438 C 186.992188 242.210938 189.324219 239.960938 191.386719 238.585938 C 192.386719 237.914062 194.089844 237.050781 195.164062 236.667969 C 196.636719 236.140625 197.121094 235.839844 197.121094 235.445312 C 197.121094 235.082031 196.882812 234.898438 196.34375 234.835938 C 194.398438 234.613281 190.558594 236.765625 186.753906 240.214844 C 185.097656 241.710938 182.699219 243.421875 182.222656 243.441406 C 182.175781 243.445312 182.222656 243.160156 182.332031 242.816406 Z M 252.460938 241.976562 C 251.578125 240.613281 251.609375 239.878906 252.582031 238.96875 C 253.082031 238.5 253.539062 238.171875 253.601562 238.230469 C 253.789062 238.417969 253.753906 242.003906 253.558594 242.316406 C 253.277344 242.773438 252.902344 242.660156 252.460938 241.976562 Z M 238.8125 241.71875 C 237.894531 241.363281 237.707031 240.765625 237.820312 238.542969 C 237.894531 237.117188 237.988281 236.867188 238.476562 236.796875 C 238.976562 236.726562 239.03125 236.84375 238.9375 237.808594 C 238.777344 239.496094 239.445312 240.480469 241.382812 241.398438 C 242.296875 241.832031 243.054688 242.261719 243.0625 242.351562 C 243.082031 242.582031 239.75 242.085938 238.8125 241.71875 Z M 245.296875 241.207031 C 241.980469 240.191406 240.726562 239.402344 240.628906 238.265625 C 240.546875 237.320312 240.796875 236.824219 241.398438 236.734375 C 242.636719 236.554688 252.914062 236.808594 252.433594 237.007812 C 250.808594 237.679688 249.917969 239.664062 250.492188 241.335938 L 250.855469 242.394531 L 249.410156 242.210938 C 248.613281 242.109375 246.761719 241.660156 245.296875 241.207031 Z M 178.980469 237.167969 L 178.503906 235.921875 L 180.707031 233.328125 C 183.167969 230.433594 185.175781 228.757812 186.644531 228.378906 C 187.179688 228.238281 188.449219 228.078125 189.457031 228.023438 L 191.292969 227.917969 L 188.339844 229.675781 C 185.089844 231.609375 182.773438 233.789062 180.917969 236.664062 C 180.300781 237.613281 179.722656 238.398438 179.628906 238.402344 C 179.53125 238.410156 179.242188 237.855469 178.980469 237.167969 Z M 237.769531 233.945312 C 237.769531 233.332031 237.824219 232.828125 237.894531 232.828125 C 237.964844 232.828125 238.742188 233.332031 239.617188 233.945312 L 241.214844 235.0625 L 237.769531 235.0625 Z M 177.425781 233.71875 C 177.425781 233.054688 179.199219 230.984375 179.929688 230.792969 C 180.59375 230.621094 180.554688 230.703125 179.015625 232.757812 C 177.859375 234.300781 177.425781 234.5625 177.425781 233.71875 Z M 173.554688 225.890625 C 172.148438 222.84375 171 220.144531 171 219.894531 C 171 219.222656 171.816406 218.898438 173.921875 218.722656 C 177.089844 218.460938 178.46875 217.324219 178.183594 215.199219 C 177.855469 212.773438 176.386719 212.09375 171.113281 211.929688 C 166.628906 211.792969 166.964844 211.984375 165.800781 208.890625 C 165.363281 207.734375 165.191406 206.835938 165.304688 206.347656 C 165.71875 204.570312 166.875 200.652344 167.695312 198.253906 C 168.570312 195.691406 168.585938 195.664062 169.71875 195.355469 C 172.335938 194.644531 172.679688 194.476562 173.59375 193.464844 C 175.476562 191.382812 175.222656 188.644531 172.835938 185.210938 C 171.394531 183.140625 171.351562 183.03125 171.605469 181.898438 C 172 180.136719 172.941406 178.746094 175.554688 176.046875 C 176.859375 174.703125 177.984375 173.601562 178.054688 173.601562 C 178.128906 173.601562 177.699219 175.574219 177.105469 177.984375 C 175.332031 185.179688 175.585938 188.164062 178.773438 197.804688 C 180.9375 204.339844 183.441406 210.449219 184.824219 212.550781 C 186.085938 214.476562 186.089844 214.480469 185.816406 216.039062 C 184.328125 224.648438 184.097656 225.34375 182.101562 227.28125 C 181.457031 227.902344 180.238281 228.765625 179.386719 229.195312 C 178.539062 229.625 177.539062 230.304688 177.164062 230.707031 C 176.792969 231.105469 176.402344 231.433594 176.300781 231.433594 C 176.195312 231.433594 174.960938 228.9375 173.554688 225.890625 Z M 200.367188 227.742188 C 198.925781 227.277344 197.101562 226.8125 196.316406 226.714844 L 194.882812 226.539062 L 194.882812 224.699219 C 194.882812 221.542969 196.484375 219.929688 200.148438 219.398438 C 201.09375 219.261719 206.796875 219.148438 212.820312 219.144531 C 222.746094 219.140625 223.796875 219.097656 224.03125 218.675781 C 224.382812 218.046875 223.992188 216.792969 223.078125 215.589844 L 222.332031 214.613281 L 223.613281 214.789062 C 226.042969 215.117188 227.480469 215.445312 227.773438 215.738281 C 228.125 216.089844 226.929688 217.820312 225.507812 219.015625 C 224.492188 219.871094 215.742188 224.800781 211.648438 226.824219 C 206.964844 229.136719 205.117188 229.289062 200.367188 227.742188 Z M 184.621094 226.753906 C 185.441406 225.570312 186.015625 223.898438 186.617188 220.941406 C 186.921875 219.457031 187.207031 218.207031 187.253906 218.167969 C 187.304688 218.128906 188.265625 218.007812 189.390625 217.898438 C 191.289062 217.71875 191.433594 217.742188 191.304688 218.210938 C 191.226562 218.492188 190.757812 220.4375 190.257812 222.535156 L 189.347656 226.347656 L 187.644531 226.535156 C 186.710938 226.636719 185.628906 226.894531 185.246094 227.109375 C 184.199219 227.695312 184.035156 227.601562 184.621094 226.753906 Z M 89.027344 225.949219 C 89.242188 225.242188 89.339844 224.359375 89.246094 223.988281 C 89.082031 223.324219 89.09375 223.320312 90.71875 223.492188 C 93.621094 223.800781 95.570312 224.511719 95.570312 225.269531 C 95.570312 225.910156 91.746094 227.171875 89.660156 227.21875 L 88.640625 227.242188 Z M 82.515625 226.847656 C 79.640625 226.230469 78.570312 225.179688 80.105469 224.480469 C 81.207031 223.976562 84.109375 223.339844 85.308594 223.335938 C 86.539062 223.328125 86.910156 223.945312 86.910156 226.003906 L 86.910156 227.242188 L 85.582031 227.230469 C 84.851562 227.226562 83.472656 227.054688 82.515625 226.847656 Z M 191.21875 225.496094 C 191.3125 224.996094 191.777344 222.929688 192.25 220.902344 L 193.109375 217.21875 L 194.972656 216.796875 C 198.5625 215.980469 211.734375 214.40625 215.054688 214.394531 C 216.007812 214.394531 217.453125 214.527344 218.269531 214.695312 C 219.785156 215.003906 222.402344 216.515625 222.402344 217.082031 C 222.402344 217.3125 219.246094 217.4375 211.019531 217.535156 C 198.742188 217.683594 197.632812 217.804688 195.800781 219.199219 C 194.402344 220.269531 193.304688 222.496094 193.136719 224.617188 L 192.992188 226.402344 L 192.019531 226.402344 C 191.070312 226.402344 191.046875 226.378906 191.21875 225.496094 Z M 88.195312 213.972656 L 88.019531 208.941406 L 88.988281 208.332031 L 89.960938 207.726562 L 90.753906 209.171875 C 91.1875 209.96875 91.71875 210.890625 91.929688 211.21875 C 92.28125 211.765625 92.210938 211.984375 91.164062 213.59375 C 89.910156 215.527344 88.589844 218.207031 88.585938 218.835938 C 88.585938 219.054688 88.539062 219.179688 88.480469 219.117188 C 88.421875 219.050781 88.296875 216.738281 88.195312 213.972656 Z M 169.175781 216.578125 C 168.996094 215.84375 169.011719 215.835938 170.207031 215.972656 C 172.351562 216.21875 173.988281 217.164062 172.324219 217.195312 C 171.980469 217.203125 171.320312 217.375 170.859375 217.582031 C 169.886719 218.011719 169.464844 217.761719 169.175781 216.578125 Z M 172.523438 214.785156 C 172.03125 214.582031 170.796875 214.328125 169.777344 214.222656 C 166.878906 213.925781 167.605469 213.550781 171.066406 213.558594 C 173.566406 213.5625 174.453125 213.675781 175.398438 214.101562 C 176.414062 214.5625 176.585938 214.765625 176.585938 215.484375 C 176.585938 216.121094 176.398438 216.425781 175.816406 216.730469 C 175.078125 217.121094 175.019531 217.097656 174.230469 216.148438 C 173.78125 215.605469 173.011719 214.992188 172.523438 214.785156 Z M 187.589844 215.945312 C 187.3125 215.226562 188.152344 213.984375 189.296875 213.414062 C 190.308594 212.90625 190.972656 212.855469 196.28125 212.855469 C 203.023438 212.855469 207.3125 213.039062 207.5 213.34375 C 207.570312 213.457031 207.195312 213.550781 206.667969 213.550781 C 204.96875 213.550781 197.515625 214.664062 193.628906 215.5 C 189.320312 216.425781 187.816406 216.535156 187.589844 215.945312 Z M 72.941406 214.816406 C 72.941406 214.441406 77.660156 212.441406 78.527344 212.449219 C 78.90625 212.453125 80.484375 213.640625 80.484375 213.925781 C 80.484375 214.066406 79.175781 214.585938 78.386719 214.761719 C 77.613281 214.933594 72.941406 214.980469 72.941406 214.816406 Z M 69.410156 213.371094 C 69.179688 212.445312 69.484375 211.945312 70.871094 210.96875 C 72.347656 209.929688 74.277344 209.683594 75.742188 210.34375 C 76.351562 210.617188 76.851562 210.921875 76.851562 211.015625 C 76.851562 211.109375 76.234375 211.40625 75.480469 211.671875 C 74.726562 211.941406 73.375 212.589844 72.476562 213.109375 C 70.425781 214.304688 69.664062 214.371094 69.410156 213.371094 Z M 80.519531 211.574219 C 79.703125 210.621094 79.605469 210.351562 79.769531 209.476562 C 79.953125 208.496094 79.972656 208.480469 80.507812 208.96875 C 81.519531 209.878906 82.226562 211.289062 82.042969 212.023438 C 81.816406 212.929688 81.640625 212.875 80.519531 211.574219 Z M 240.347656 211.964844 C 240.617188 211.894531 241.117188 211.890625 241.464844 211.957031 C 241.8125 212.023438 241.59375 212.082031 240.980469 212.085938 C 240.367188 212.085938 240.082031 212.03125 240.347656 211.964844 Z M 58.222656 206.542969 C 57.558594 206.222656 57.015625 205.84375 57.015625 205.699219 C 57.015625 205.558594 57.425781 205.191406 57.921875 204.890625 C 58.644531 204.449219 59.332031 204.335938 61.277344 204.335938 C 62.820312 204.332031 63.71875 204.441406 63.71875 204.628906 C 63.71875 205.765625 61.90625 207.125 60.386719 207.125 C 59.859375 207.125 58.882812 206.863281 58.222656 206.542969 Z M 79.03125 200.652344 C 77.679688 199.320312 76.570312 198.109375 76.570312 197.957031 C 76.570312 197.785156 77.125 197.824219 78 198.054688 C 82.117188 199.140625 85.5 201.957031 86.472656 205.105469 C 86.652344 205.6875 86.453125 205.628906 84.082031 204.410156 C 82.046875 203.363281 80.964844 202.554688 79.03125 200.652344 Z M 58.800781 201.886719 C 58.335938 201.273438 58.304688 200.082031 58.746094 199.640625 C 58.933594 199.457031 59.546875 199.304688 60.113281 199.304688 C 60.960938 199.304688 61.320312 199.503906 62.171875 200.445312 C 62.742188 201.074219 63.148438 201.644531 63.082031 201.710938 C 62.921875 201.871094 60.699219 202.308594 59.839844 202.347656 C 59.472656 202.363281 59.003906 202.15625 58.800781 201.886719 Z M 240.097656 199.792969 C 240.175781 199.601562 240.238281 199.757812 240.238281 200.140625 C 240.238281 200.527344 240.175781 200.683594 240.097656 200.492188 C 240.019531 200.300781 240.019531 199.984375 240.097656 199.792969 Z M 99.371094 198.394531 C 99.605469 197.742188 99.871094 196.046875 99.960938 194.628906 L 100.121094 192.050781 L 100.847656 192.222656 C 102.648438 192.652344 103.847656 193.691406 104.242188 195.164062 C 104.511719 196.164062 104.460938 196.335938 103.390625 197.90625 L 102.253906 199.582031 L 98.945312 199.582031 Z M 96.128906 199.011719 C 97.605469 197.824219 98.316406 197.710938 97.453125 198.800781 C 97.082031 199.269531 96.527344 199.53125 95.847656 199.554688 C 95.578125 199.566406 95.675781 199.375 96.128906 199.011719 Z M 92.1875 197.976562 C 93.019531 196.371094 97.207031 192.597656 98.160156 192.597656 C 98.285156 192.597656 98.351562 193.363281 98.304688 194.296875 L 98.222656 195.996094 L 96.742188 196.519531 C 95.925781 196.804688 94.667969 197.480469 93.945312 198.023438 C 93.226562 198.566406 92.414062 199.011719 92.140625 199.015625 C 91.675781 199.023438 91.679688 198.960938 92.1875 197.976562 Z M 111.484375 195.527344 C 109.875 194.339844 109.910156 194.132812 111.867188 193.472656 C 113.933594 192.773438 116.132812 192.710938 117.550781 193.300781 L 118.566406 193.726562 L 117.921875 194.410156 C 116.191406 196.253906 113.175781 196.777344 111.484375 195.527344 Z M 169.320312 193.066406 C 169.320312 192.863281 169.636719 191.648438 170.019531 190.363281 C 170.40625 189.082031 170.71875 187.34375 170.71875 186.503906 L 170.71875 184.980469 L 171.539062 186.015625 C 174.253906 189.429688 173.488281 193.339844 170.089844 193.421875 C 169.628906 193.429688 169.320312 193.289062 169.320312 193.066406 Z M 78.023438 190.398438 C 77.078125 189.714844 75.707031 188.234375 75.066406 187.203125 C 74.703125 186.617188 75.285156 186.957031 77.335938 188.535156 C 78.855469 189.699219 80.527344 191.03125 81.058594 191.488281 L 82.019531 192.328125 L 80.398438 191.632812 C 79.507812 191.253906 78.441406 190.699219 78.023438 190.398438 Z M 109.789062 190.609375 C 109.988281 189.714844 110.375 189.105469 111.234375 188.335938 C 112.246094 187.429688 113.925781 186.632812 114.25 186.902344 C 114.308594 186.949219 114.058594 187.589844 113.691406 188.328125 C 113.210938 189.300781 112.570312 189.980469 111.351562 190.8125 C 110.429688 191.445312 109.640625 191.933594 109.597656 191.898438 C 109.554688 191.863281 109.640625 191.285156 109.789062 190.609375 Z M 82.007812 190.214844 C 80.785156 189.210938 78.929688 187.753906 77.882812 186.972656 C 76.839844 186.191406 76.03125 185.503906 76.085938 185.449219 C 76.269531 185.265625 78.375 185.9375 79.855469 186.648438 C 80.660156 187.039062 81.75 187.796875 82.273438 188.339844 C 83.292969 189.386719 84.867188 192.039062 84.46875 192.039062 C 84.335938 192.039062 83.230469 191.21875 82.007812 190.214844 Z M 153.445312 187.71875 C 151.820312 186.246094 151.023438 184.101562 151.410156 182.261719 L 151.617188 181.285156 L 151.984375 182.402344 C 152.445312 183.8125 153.105469 184.917969 155.144531 187.679688 C 157.484375 190.847656 157.605469 191.199219 155.875 189.789062 C 155.050781 189.117188 153.957031 188.1875 153.445312 187.71875 Z M 89.9375 189.457031 C 90.964844 187.960938 93.660156 185.382812 95.222656 184.398438 C 96.777344 183.417969 99.199219 182.46875 99.199219 182.839844 C 99.199219 183.898438 96.453125 186.875 94.179688 188.28125 C 93.230469 188.867188 89.882812 190.441406 89.199219 190.621094 C 89.152344 190.632812 89.484375 190.109375 89.9375 189.457031 Z M 87.359375 189.457031 C 87.707031 187.480469 88.117188 186.703125 89.453125 185.5 C 90.660156 184.417969 91.632812 183.90625 94.3125 182.949219 C 94.617188 182.839844 94.246094 183.160156 93.480469 183.660156 C 91.761719 184.78125 89.066406 187.546875 88.121094 189.15625 C 87.730469 189.820312 87.367188 190.363281 87.308594 190.363281 C 87.25 190.363281 87.273438 189.957031 87.359375 189.457031 Z M 83.046875 180.734375 C 82.109375 179.730469 81.195312 178.640625 81.019531 178.308594 C 80.703125 177.71875 80.714844 177.722656 81.636719 178.363281 C 84.433594 180.3125 86.90625 182.894531 86.90625 183.863281 C 86.90625 184.417969 85.1875 183.023438 83.046875 180.734375 Z M 170.257812 179.328125 C 170.351562 178.636719 170.675781 177.597656 170.972656 177.023438 C 171.273438 176.449219 173.796875 173.714844 176.585938 170.949219 C 181.894531 165.679688 183.960938 163.3125 184.890625 161.449219 C 185.617188 159.988281 185.75 159.378906 186.101562 155.949219 C 186.535156 151.667969 187.167969 150.5625 192.898438 144.050781 C 195.46875 141.128906 196.25 139.394531 196.269531 136.585938 C 196.277344 134.84375 196.152344 134.105469 195.699219 133.238281 L 195.113281 132.125 L 196.4375 131.074219 C 197.164062 130.496094 197.882812 130.019531 198.035156 130.019531 C 198.1875 130.019531 198.53125 130.476562 198.796875 131.039062 C 199.175781 131.839844 199.253906 132.597656 199.167969 134.609375 C 199.0625 136.941406 198.953125 137.367188 197.875 139.527344 C 197.214844 140.847656 195.691406 143.128906 194.421875 144.6875 C 193.175781 146.222656 191.769531 148.296875 191.296875 149.292969 C 190.53125 150.910156 190.421875 151.484375 190.261719 154.601562 C 190.140625 156.964844 189.925781 158.445312 189.601562 159.175781 C 189.285156 159.894531 186.328125 163.015625 180.75 168.519531 C 172.964844 176.203125 170.441406 179.050781 170.441406 180.144531 C 170.441406 180.386719 170.359375 180.585938 170.261719 180.585938 C 170.164062 180.585938 170.160156 180.019531 170.257812 179.328125 Z M 86.285156 177.933594 C 85.386719 175.867188 84.816406 173.054688 85.085938 172.007812 C 85.28125 171.257812 85.316406 171.289062 86.058594 172.902344 C 86.917969 174.773438 87.359375 176.570312 87.574219 179.019531 C 87.738281 180.929688 87.503906 180.734375 86.285156 177.933594 Z M 197.121094 179.222656 C 195.769531 178.601562 193.285156 176.03125 191.816406 173.742188 C 190.464844 171.628906 187.484375 165.523438 187.484375 164.863281 C 187.480469 164.589844 188.113281 163.71875 188.882812 162.929688 C 189.652344 162.136719 190.621094 160.800781 191.035156 159.957031 C 191.6875 158.617188 191.804688 157.964844 191.941406 154.90625 C 192.121094 150.8125 192.484375 149.894531 195.410156 146.128906 C 198.316406 142.382812 199.214844 140.976562 199.957031 139.027344 C 201.257812 135.597656 201.121094 130.496094 199.6875 129.164062 L 199.105469 128.621094 L 200.070312 127.582031 C 200.597656 127.007812 201.105469 126.476562 201.195312 126.394531 C 201.746094 125.910156 203.605469 122.941406 204.414062 121.257812 L 205.359375 119.28125 L 205.359375 120.574219 C 205.359375 123.453125 207.261719 127.316406 209.632812 129.261719 C 212.375 131.503906 216.289062 133.25 219.75 133.769531 C 220.363281 133.859375 221.179688 133.996094 221.5625 134.070312 C 222.25 134.203125 234.226562 135.046875 235.464844 135.046875 C 235.808594 135.050781 236.089844 135.179688 236.089844 135.335938 C 236.089844 135.496094 234.960938 137.929688 233.574219 140.75 C 231.28125 145.425781 227.609375 151.714844 225.984375 153.753906 C 225.628906 154.203125 224.898438 155.175781 224.367188 155.914062 C 220.292969 161.566406 210.9375 171.359375 205.359375 175.808594 C 202.621094 177.996094 199.621094 179.753906 198.65625 179.742188 C 198.425781 179.738281 197.734375 179.503906 197.121094 179.222656 Z M 92.890625 177.261719 C 94.378906 175.75 96.300781 174.605469 97.804688 174.339844 L 98.78125 174.164062 L 98.082031 174.738281 C 96.90625 175.707031 92.1875 178.558594 91.667969 178.617188 C 91.597656 178.625 92.144531 178.015625 92.890625 177.261719 Z M 89.191406 173.183594 C 89.28125 170.113281 89.359375 169.679688 90.15625 168.015625 C 90.636719 167.015625 91.445312 165.632812 91.953125 164.945312 L 92.875 163.691406 L 93.117188 164.527344 C 93.457031 165.703125 93.109375 169.464844 92.472656 171.484375 C 92.175781 172.417969 91.480469 174 90.925781 175 C 90.367188 175.996094 89.773438 177.097656 89.597656 177.441406 C 89.285156 178.0625 89.28125 178.0625 89.1875 177.300781 C 89.132812 176.878906 89.136719 175.027344 89.1875 173.183594 Z M 155.632812 170.351562 C 155.632812 170.097656 156.742188 168.847656 158.097656 167.570312 C 160.90625 164.921875 161.875 163.359375 162.367188 160.679688 C 162.824219 158.203125 162.417969 155.960938 160.898438 152.589844 C 159.875 150.316406 159.773438 149.890625 159.875 148.304688 C 160.015625 146.089844 161.308594 143.445312 163.96875 139.921875 C 167.636719 135.0625 169.605469 131.304688 170.296875 127.824219 C 170.5 126.804688 170.675781 126.285156 170.6875 126.667969 C 170.710938 127.476562 170.292969 129.375 169.074219 134.03125 C 167.738281 139.128906 167.933594 141.070312 170.300781 146.101562 C 172.144531 150.023438 172.675781 151.777344 172.675781 153.984375 C 172.675781 157.984375 170.636719 160.453125 163.316406 165.308594 C 159.210938 168.035156 156.773438 169.765625 156.269531 170.320312 C 155.71875 170.925781 155.632812 170.929688 155.632812 170.351562 Z M 153.996094 165.558594 C 152.125 162.707031 151.609375 161.179688 151.789062 158.96875 C 151.980469 156.597656 153.191406 153.863281 155.644531 150.296875 C 156.773438 148.652344 157.789062 147.25 157.902344 147.179688 C 158.015625 147.109375 158.109375 147.734375 158.109375 148.566406 C 158.109375 149.628906 158.375 150.738281 159.003906 152.273438 C 161.027344 157.234375 161.007812 157.15625 160.875 159.214844 C 160.699219 162.007812 159.929688 163.53125 157.53125 165.816406 C 156.421875 166.871094 155.496094 167.734375 155.472656 167.734375 C 155.445312 167.734375 154.78125 166.757812 153.996094 165.558594 Z M 238.640625 133.757812 C 237.816406 133.59375 237.769531 133.511719 237.769531 132.308594 C 237.769531 130.640625 236.890625 128.871094 235.4375 127.625 C 234.800781 127.078125 231.964844 125.179688 229.144531 123.410156 C 220.339844 117.898438 217.304688 115.328125 214.746094 111.222656 C 212.96875 108.367188 212.453125 106.574219 212.203125 102.363281 C 212.089844 100.441406 211.820312 98.1875 211.601562 97.355469 C 210.722656 93.972656 207.589844 90.308594 201.988281 86.109375 C 192.484375 78.984375 185.320312 75.878906 180.230469 76.683594 C 179.394531 76.816406 178.660156 76.871094 178.59375 76.808594 C 178.363281 76.578125 180.675781 74.015625 182.417969 72.578125 C 185.664062 69.894531 189.628906 68.222656 192.753906 68.222656 C 197.835938 68.222656 205.839844 74.566406 212.921875 84.203125 C 216.628906 89.25 217.882812 92.183594 219.175781 98.871094 C 220.308594 104.726562 220.949219 107.046875 222.03125 109.207031 C 223.683594 112.503906 225.230469 114.15625 231.070312 118.851562 C 237.582031 124.089844 239.621094 126.375 240.605469 129.527344 C 240.886719 130.441406 241.121094 131.804688 241.121094 132.558594 C 241.121094 133.886719 241.09375 133.933594 240.316406 133.933594 C 239.875 133.933594 239.121094 133.851562 238.640625 133.757812 Z M 230.582031 132.84375 C 222.386719 131.25 213.957031 126.496094 210.542969 121.539062 C 208.730469 118.90625 208.113281 116.734375 207.945312 112.40625 L 207.800781 108.621094 L 208.539062 108.140625 C 208.941406 107.875 209.617188 107.136719 210.039062 106.503906 L 210.800781 105.347656 L 210.992188 106.441406 C 211.578125 109.855469 213.953125 113.753906 217.460938 117.070312 C 219.890625 119.363281 222.699219 121.351562 229.246094 125.40625 C 234.625 128.738281 236.371094 130.519531 236.371094 132.664062 C 236.371094 133.335938 236.292969 133.375 234.84375 133.375 C 234.003906 133.375 232.085938 133.132812 230.585938 132.84375 Z M 218.769531 131.851562 C 213.992188 130.636719 211.261719 129.0625 209.214844 126.339844 C 207.539062 124.117188 207.039062 122.679688 206.894531 119.683594 C 206.832031 118.378906 206.847656 117.5625 206.929688 117.867188 C 207.375 119.535156 209.308594 122.792969 210.796875 124.386719 C 213.539062 127.316406 217.730469 130.15625 221.84375 131.871094 C 223.351562 132.5 223.363281 132.511719 222.402344 132.519531 C 221.863281 132.527344 220.230469 132.226562 218.769531 131.851562 Z M 189.414062 130.847656 C 188.203125 130.230469 187.066406 129.167969 184.703125 126.4375 C 183.863281 125.472656 182.226562 124.011719 181.0625 123.195312 C 178.046875 121.085938 176.566406 118.917969 175.605469 115.199219 C 174.972656 112.765625 174.886719 112.628906 172.148438 109.765625 C 170.429688 107.972656 169.59375 106.851562 169.222656 105.855469 C 168.558594 104.070312 168.289062 99.519531 168.742188 97.722656 C 169.066406 96.4375 171.332031 92.582031 171.761719 92.589844 C 171.878906 92.589844 172.714844 93.535156 173.617188 94.6875 C 177.40625 99.519531 182.261719 101.800781 188.738281 101.789062 C 191.476562 101.785156 192.207031 101.671875 198.035156 100.382812 L 200.902344 99.75 L 201.664062 100.316406 C 202.640625 101.042969 203.304688 102.839844 204.023438 106.691406 C 204.792969 110.804688 204.84375 115.59375 204.144531 117.867188 C 203.144531 121.117188 199.789062 125.953125 196.5 128.882812 C 193.660156 131.417969 191.632812 131.980469 189.414062 130.847656 Z M 205.1875 104.78125 C 204.800781 102.960938 204.296875 101.070312 204.0625 100.578125 C 203.636719 99.691406 203.640625 99.6875 204.945312 98.382812 C 205.664062 97.664062 206.160156 97.292969 206.050781 97.554688 C 205.667969 98.464844 205.570312 102.335938 205.878906 104.511719 C 206.046875 105.710938 206.246094 107.699219 206.316406 108.929688 C 206.445312 111.082031 206.441406 111.105469 206.167969 109.625 C 206.011719 108.78125 205.570312 106.601562 205.1875 104.78125 Z M 207.445312 103.867188 C 207.335938 102.390625 207.316406 100.5 207.402344 99.667969 C 207.558594 98.136719 208.339844 96.179688 208.855469 96.023438 C 209.824219 95.726562 210.472656 100.242188 209.84375 102.875 C 209.523438 104.210938 208.246094 106.554688 207.839844 106.554688 C 207.734375 106.554688 207.558594 105.34375 207.445312 103.867188 Z M 186.222656 100.117188 C 185.148438 99.964844 183.640625 99.660156 182.871094 99.4375 C 179.867188 98.570312 175.921875 95.484375 173.710938 92.265625 L 172.683594 90.769531 L 173.332031 88.839844 L 173.984375 86.910156 L 174.160156 88.003906 C 174.488281 90.023438 175.992188 92.480469 178.160156 94.539062 C 181.066406 97.300781 183.945312 98.65625 188.222656 99.28125 C 189.425781 99.457031 190.855469 99.683594 191.390625 99.78125 L 192.371094 99.960938 L 191.113281 100.140625 C 189.171875 100.421875 188.335938 100.417969 186.222656 100.117188 Z M 188.714844 97.773438 C 179.425781 96.140625 174.238281 90.117188 175.777344 82.75 C 176.207031 80.710938 176.957031 79.59375 178.34375 78.941406 C 181.8125 77.304688 186.339844 78.269531 192.980469 82.058594 C 196.578125 84.113281 202.164062 88.117188 204.625 90.40625 C 206.292969 91.957031 206.316406 92.003906 205.539062 92.015625 C 203.902344 92.039062 202.015625 94.765625 202.011719 97.113281 L 202.007812 97.871094 L 199.425781 97.964844 C 193.160156 98.1875 190.832031 98.148438 188.714844 97.773438 Z M 203.800781 95.796875 C 204.113281 94.554688 205.324219 93.421875 206.347656 93.421875 C 207.660156 93.421875 207.765625 93.832031 206.628906 94.53125 C 206.097656 94.863281 205.25 95.652344 204.746094 96.289062 C 204.023438 97.199219 203.804688 97.339844 203.730469 96.949219 C 203.679688 96.675781 203.710938 96.15625 203.800781 95.796875 Z M 169.847656 91.953125 C 170.121094 91.679688 170.15625 91.710938 170.003906 92.109375 C 169.898438 92.382812 169.742188 92.539062 169.65625 92.453125 C 169.570312 92.367188 169.65625 92.140625 169.847656 91.953125 Z M 170.894531 88.664062 C 171.449219 87.886719 171.960938 87.308594 172.027344 87.375 C 172.265625 87.613281 171.324219 89.460938 170.816406 89.753906 C 169.859375 90.308594 169.878906 90.078125 170.894531 88.664062 Z M 163.976562 81.40625 C 165.1875 79.414062 168.65625 75.042969 169.773438 74.097656 C 171.160156 72.925781 173.679688 72.21875 174.902344 72.660156 C 175.566406 72.902344 175.605469 73.019531 175.546875 74.71875 C 175.488281 76.324219 174.441406 80.359375 173.820312 81.367188 C 173.628906 81.671875 173.414062 81.648438 172.640625 81.226562 C 171.902344 80.824219 171.089844 80.710938 168.902344 80.710938 C 166.382812 80.710938 165.984375 80.785156 164.851562 81.453125 C 164.160156 81.859375 163.566406 82.207031 163.53125 82.21875 C 163.492188 82.234375 163.695312 81.871094 163.976562 81.40625 Z M 177.355469 74.1875 C 177.472656 72.984375 177.394531 72.722656 176.667969 71.914062 C 175.992188 71.15625 175.648438 70.996094 174.679688 70.996094 C 174.039062 70.996094 173.511719 70.957031 173.511719 70.910156 C 173.511719 70.613281 177.527344 68.65625 179.265625 68.105469 C 181.949219 67.253906 186.128906 66.761719 187.621094 67.117188 C 188.234375 67.265625 188.511719 67.398438 188.234375 67.414062 C 187.644531 67.445312 185.097656 68.679688 183.289062 69.804688 C 182.597656 70.234375 180.964844 71.691406 179.660156 73.042969 C 178.351562 74.394531 177.269531 75.511719 177.253906 75.523438 C 177.238281 75.535156 177.285156 74.933594 177.355469 74.1875 Z M 177.355469 74.1875 " fill-opacity="1" fill-rule="nonzero"/></g><path fill="#ffffff" d="M 93.1875 266.675781 C 96.992188 266.125 98.449219 264.460938 100.535156 258.300781 C 102.707031 251.871094 103.875 244.707031 103.5625 239.75 C 103.261719 234.992188 102.113281 232.390625 98.628906 228.574219 C 97.367188 227.191406 96.238281 226.023438 96.121094 225.980469 C 95.882812 225.886719 95 226.6875 95.007812 226.988281 C 95.007812 227.09375 96.023438 228.246094 97.257812 229.546875 C 101.320312 233.832031 102.136719 236.117188 101.90625 242.542969 C 101.703125 248.109375 100.40625 254.230469 98.296875 259.585938 C 97.03125 262.800781 96.285156 263.875 94.914062 264.472656 C 91.558594 265.929688 82.78125 265.683594 80.304688 264.058594 C 77.738281 262.378906 74.070312 248.75 74.054688 240.851562 C 74.050781 237.21875 74.679688 235.320312 77.039062 231.835938 C 78.859375 229.148438 80.742188 226.519531 79.574219 226.519531 C 78.871094 226.519531 73.992188 233.042969 73.175781 235.332031 C 71.5 240.019531 72.847656 250.933594 76.238281 260.117188 C 76.839844 261.75 77.671875 263.574219 78.085938 264.171875 C 78.945312 265.414062 80.550781 266.214844 83.113281 266.683594 C 85.03125 267.035156 90.742188 267.03125 93.1875 266.675781 Z M 93.1875 266.675781 " fill-opacity="1" fill-rule="nonzero"/><path fill="#ffffff" d="M 295.480469 270.820312 C 298.773438 270.523438 300.941406 269.8125 301.382812 268.886719 C 301.566406 268.5 302.039062 265.105469 302.433594 261.34375 C 302.828125 257.578125 303.335938 253.871094 303.558594 253.101562 C 303.953125 251.753906 304.113281 250.660156 304.398438 247.375 C 304.46875 246.53125 304.714844 243.890625 304.941406 241.507812 C 305.167969 239.125 305.433594 236.277344 305.53125 235.175781 C 305.679688 233.5625 305.84375 233.054688 306.386719 232.542969 C 307.179688 231.796875 307.308594 229.980469 306.636719 229.019531 C 305.65625 227.621094 299.960938 225.863281 296.410156 225.863281 C 295.363281 225.863281 295.359375 225.859375 295.738281 225.128906 C 296.621094 223.429688 295.296875 222.5625 289.414062 220.984375 C 284.980469 219.796875 284.09375 219.464844 284.230469 219.050781 C 284.429688 218.4375 286.601562 217.992188 291.414062 217.578125 C 297.03125 217.089844 298.117188 216.75 298.117188 215.476562 C 298.117188 215.023438 297.988281 214.410156 297.828125 214.113281 C 297.261719 213.050781 293.863281 211.566406 288.273438 209.9375 C 286.082031 209.296875 284.175781 208.664062 284.039062 208.53125 C 283.742188 208.25 284.46875 207.917969 286.75 207.289062 C 288.160156 206.898438 288.363281 206.757812 288.289062 206.226562 C 288.210938 205.683594 288.042969 205.613281 286.882812 205.652344 C 286.160156 205.679688 284.878906 206.011719 284.03125 206.402344 C 282.199219 207.238281 281.78125 208.136719 282.664062 209.316406 C 283.214844 210.058594 283.625 210.214844 290.015625 212.175781 C 292.886719 213.058594 295.957031 214.414062 296.285156 214.941406 C 296.578125 215.417969 295.96875 215.546875 291.507812 215.953125 C 285.96875 216.464844 283.984375 216.855469 283.101562 217.609375 C 282.164062 218.417969 282.171875 219.628906 283.125 220.445312 C 283.855469 221.074219 284.179688 221.183594 290.097656 222.800781 C 291.910156 223.292969 293.671875 223.925781 294.011719 224.203125 L 294.625 224.707031 L 293.554688 225.160156 C 292.816406 225.472656 290.902344 225.703125 287.40625 225.898438 C 281.832031 226.210938 278.917969 226.777344 276.816406 227.960938 C 275.171875 228.882812 274.652344 229.601562 274.652344 230.933594 C 274.652344 231.6875 274.828125 232.109375 275.308594 232.484375 C 275.910156 232.957031 275.992188 233.339844 276.296875 237.046875 C 277.121094 247.007812 277.71875 252.171875 278.132812 252.90625 C 278.410156 253.390625 278.847656 256.253906 279.363281 260.945312 C 279.804688 264.953125 280.320312 268.515625 280.503906 268.863281 C 281.4375 270.605469 288.117188 271.476562 295.480469 270.820312 Z M 284.148438 268.875 C 282.753906 268.574219 281.636719 267.964844 281.636719 267.503906 C 281.636719 267.40625 282.671875 267.480469 283.941406 267.671875 C 287.886719 268.265625 297.273438 268.0625 299.574219 267.332031 C 300.3125 267.097656 300.179688 267.6875 299.371094 268.214844 C 297.667969 269.332031 288.203125 269.742188 284.148438 268.875 Z M 283.214844 265.886719 C 282.46875 265.734375 281.761719 265.460938 281.648438 265.277344 C 281.46875 264.988281 281.15625 262.597656 280.332031 255.304688 L 280.171875 253.875 L 281.8125 254.15625 C 284.085938 254.546875 297.847656 254.554688 299.933594 254.167969 C 300.855469 253.996094 301.632812 253.875 301.65625 253.898438 C 301.683594 253.921875 301.589844 254.945312 301.449219 256.175781 C 300.570312 263.945312 300.355469 265.359375 300.019531 265.566406 C 299.820312 265.691406 298.96875 265.867188 298.121094 265.957031 C 297.273438 266.050781 296.394531 266.171875 296.164062 266.226562 C 295.308594 266.433594 284.519531 266.144531 283.214844 265.886719 Z M 283.917969 252.660156 C 282.433594 252.496094 280.8125 252.238281 280.316406 252.085938 C 279.257812 251.757812 279.308594 251.972656 278.691406 245.28125 C 278.453125 242.667969 278.1875 240.296875 278.101562 240.011719 C 277.96875 239.570312 278.0625 239.519531 278.742188 239.664062 C 281.273438 240.195312 284.128906 240.378906 289.738281 240.378906 C 295.453125 240.382812 298.125 240.230469 302.179688 239.6875 L 303.585938 239.496094 L 302.964844 244.902344 C 302.621094 247.875 302.335938 250.640625 302.324219 251.046875 C 302.316406 251.46875 302.097656 251.878906 301.820312 252.003906 C 299.917969 252.84375 289.132812 253.242188 283.917969 252.660156 Z M 279.367188 238.164062 C 278.105469 237.855469 278.070312 237.816406 277.898438 236.566406 C 277.804688 235.859375 277.722656 234.878906 277.722656 234.378906 L 277.722656 233.472656 L 278.910156 233.722656 C 283.0625 234.582031 297.34375 234.660156 301.609375 233.84375 C 302.839844 233.609375 303.894531 233.414062 303.953125 233.414062 C 304.097656 233.40625 303.734375 236.921875 303.535156 237.4375 C 303.367188 237.871094 301.433594 238.347656 299.097656 238.535156 C 296.160156 238.769531 280.632812 238.476562 279.367188 238.164062 Z M 281.355469 232.414062 C 278.476562 232.066406 276.039062 231.398438 276.058594 230.96875 C 276.0625 230.851562 276.246094 230.515625 276.46875 230.222656 C 276.863281 229.703125 276.90625 229.703125 278.683594 230.285156 C 281.261719 231.132812 287.328125 231.5625 293.53125 231.339844 C 298.988281 231.140625 301.433594 230.84375 303.46875 230.121094 C 304.554688 229.738281 304.84375 229.722656 305.214844 230.03125 C 306.59375 231.175781 304.496094 231.941406 298.257812 232.5625 C 295.757812 232.8125 283.757812 232.707031 281.355469 232.414062 Z M 282.859375 229.390625 C 281.304688 229.183594 279.859375 228.910156 279.648438 228.777344 C 278.371094 227.988281 292.152344 226.953125 296.621094 227.503906 C 299.90625 227.90625 302.027344 228.359375 302.027344 228.65625 C 302.027344 228.894531 299.1875 229.417969 297 229.582031 C 293.605469 229.835938 285.398438 229.726562 282.859375 229.390625 Z M 282.859375 229.390625 " fill-opacity="1" fill-rule="nonzero"/></svg>