<svg xmlns="http://www.w3.org/2000/svg" xmlns:xlink="http://www.w3.org/1999/xlink" width="150" zoomAndPan="magnify" viewBox="0 0 112.5 112.499997" height="150" preserveAspectRatio="xMidYMid meet" version="1.0"><defs><clipPath id="44deea65db"><path d="M 20.8125 16 L 91.003906 16 L 91.003906 96.492188 L 20.8125 96.492188 Z M 20.8125 16 " clip-rule="nonzero"/></clipPath></defs><g clip-path="url(#44deea65db)"><path fill="#e44d26" d="M 27.1875 88.253906 L 20.792969 16.078125 L 91.023438 16.078125 L 84.625 88.242188 L 55.863281 96.265625 Z M 27.1875 88.253906 " fill-opacity="1" fill-rule="nonzero"/></g><path fill="#f16529" d="M 79.148438 83.648438 L 84.617188 21.976562 L 55.90625 21.976562 L 55.90625 90.132812 Z M 79.148438 83.648438 " fill-opacity="1" fill-rule="nonzero"/><path fill="#ebebeb" d="M 55.878906 30.828125 L 33.859375 30.828125 L 36.234375 57.597656 L 55.90625 57.597656 L 55.90625 48.746094 L 44.273438 48.746094 L 43.472656 39.683594 L 55.90625 39.683594 L 55.90625 30.828125 Z M 55.90625 71.707031 L 55.871094 71.71875 L 46.078125 69.054688 L 45.457031 61.996094 L 36.625 61.996094 L 37.859375 75.894531 L 55.867188 80.90625 L 55.90625 80.894531 Z M 55.90625 71.707031 " fill-opacity="1" fill-rule="nonzero"/><path fill="#ffffff" d="M 55.878906 57.597656 L 66.703125 57.597656 L 65.710938 69.078125 L 55.902344 71.742188 L 55.902344 80.949219 L 73.929688 75.921875 L 76.34375 48.742188 L 55.90625 48.742188 Z M 77.691406 33.207031 L 77.898438 30.828125 L 55.875 30.828125 L 55.875 39.679688 L 77.109375 39.679688 L 77.28125 37.691406 Z M 77.691406 33.207031 " fill-opacity="1" fill-rule="nonzero"/></svg>