<svg xmlns="http://www.w3.org/2000/svg" xmlns:xlink="http://www.w3.org/1999/xlink" width="204" zoomAndPan="magnify" viewBox="0 0 153 153.000002" height="204" preserveAspectRatio="xMidYMid meet" version="1.0"><defs><clipPath id="72719bc4db"><path d="M 57 14.027344 L 102 14.027344 L 102 86 L 57 86 Z M 57 14.027344 " clip-rule="nonzero"/></clipPath></defs><path fill="#4e7896" d="M 57.902344 108.195312 C 57.902344 108.195312 53.214844 111.042969 61.160156 111.859375 C 70.726562 113.074219 75.824219 112.875 86.410156 110.839844 C 88.542969 112.144531 90.785156 113.230469 93.128906 114.09375 C 69.308594 124.265625 39.160156 113.488281 57.898438 108.195312 Z M 54.851562 94.976562 C 54.851562 94.976562 49.761719 98.839844 57.703125 99.65625 C 68.089844 100.675781 76.234375 100.875 90.292969 98.03125 C 91.675781 99.4375 93.304688 100.453125 95.175781 101.082031 C 66.460938 109.625 34.285156 101.894531 54.851562 94.980469 Z M 111.058594 118.15625 C 111.058594 118.15625 114.519531 121.003906 107.191406 123.242188 C 93.546875 127.316406 49.96875 128.535156 37.746094 123.242188 C 33.472656 121.414062 41.617188 118.769531 44.226562 118.363281 C 46.875 117.753906 48.304688 117.753906 48.304688 117.753906 C 43.617188 114.5 17.148438 124.464844 34.867188 127.308594 C 83.539062 135.238281 123.65625 123.851562 111.027344 118.15625 Z M 60.105469 81.144531 C 60.105469 81.144531 37.90625 86.433594 52.164062 88.261719 C 58.273438 89.078125 70.285156 88.871094 81.488281 88.058594 C 90.648438 87.246094 99.820312 85.625 99.820312 85.625 C 99.820312 85.625 96.5625 87.046875 94.320312 88.472656 C 71.71875 94.371094 28.335938 91.726562 40.761719 85.625 C 51.351562 80.539062 60.109375 81.152344 60.109375 81.152344 Z M 99.820312 103.3125 C 122.625 91.511719 112.039062 80.132812 104.707031 81.550781 C 102.875 81.957031 102.058594 82.367188 102.058594 82.367188 C 102.058594 82.367188 102.667969 81.148438 104.09375 80.738281 C 118.550781 75.65625 129.957031 95.992188 99.402344 103.921875 C 99.402344 103.921875 99.605469 103.71875 99.8125 103.3125 Z M 62.355469 135.445312 C 84.34375 136.871094 117.949219 134.632812 118.761719 124.253906 C 118.761719 124.253906 117.132812 128.328125 100.640625 131.371094 C 81.902344 134.828125 58.6875 134.417969 45.042969 132.1875 C 45.042969 132.1875 47.894531 134.625 62.355469 135.441406 Z M 62.355469 135.445312 " fill-opacity="1" fill-rule="nonzero"/><g clip-path="url(#72719bc4db)"><path fill="#f58219" d="M 86.007812 14.03125 C 86.007812 14.03125 98.632812 26.839844 73.992188 46.164062 C 54.238281 61.824219 69.515625 70.769531 73.992188 80.941406 C 62.382812 70.570312 54.039062 61.414062 59.738281 52.878906 C 68.085938 40.261719 91.097656 34.199219 86.007812 14.03125 Z M 79.527344 72.398438 C 85.433594 79.109375 77.902344 85.210938 77.902344 85.210938 C 77.902344 85.210938 92.96875 77.484375 86.046875 67.925781 C 79.734375 58.773438 74.839844 54.296875 101.316406 39.046875 C 101.316406 39.046875 59.570312 49.417969 79.527344 72.398438 Z M 79.527344 72.398438 " fill-opacity="1" fill-rule="nonzero"/></g></svg>