<svg xmlns="http://www.w3.org/2000/svg" xmlns:xlink="http://www.w3.org/1999/xlink" width="600" zoomAndPan="magnify" viewBox="0 0 450 299.999988" height="400" preserveAspectRatio="xMidYMid meet" version="1.0"><defs><g/><clipPath id="d904331046"><path d="M 0 79.835938 L 449 79.835938 L 449 220.332031 L 0 220.332031 Z M 0 79.835938 " clip-rule="nonzero"/></clipPath></defs><g clip-path="url(#d904331046)"><path fill="#ffffff" d="M 448.109375 184.359375 C 449.996094 159.3125 448.46875 134.449219 444.878906 109.671875 C 444.070312 104.019531 443.890625 98.273438 443.441406 92.4375 C 445.597656 92.4375 447.390625 92.4375 447.570312 90.375 C 447.839844 87.769531 445.507812 87.949219 443.710938 87.410156 C 443.710938 86.691406 443.710938 85.886719 443.710938 85.167969 C 443.621094 82.292969 442.457031 81.578125 439.671875 82.5625 C 438.683594 82.921875 437.519531 82.921875 436.441406 82.832031 C 435.183594 82.742188 433.925781 82.113281 432.671875 82.113281 C 428.542969 82.023438 424.414062 82.113281 420.371094 82.203125 C 398.378906 82.5625 376.386719 83.101562 354.484375 83.371094 C 345.957031 83.460938 337.429688 82.921875 328.902344 83.101562 C 298.832031 83.820312 268.847656 84.539062 238.777344 85.617188 C 221.722656 86.246094 204.574219 87.589844 187.519531 88.667969 C 173.695312 89.566406 159.960938 90.910156 146.136719 91.359375 C 126.929688 91.988281 107.71875 92.527344 88.507812 92.257812 C 67.324219 91.988281 46.230469 90.734375 25.042969 90.375 C 21.09375 90.285156 17.59375 86.871094 13.554688 89.296875 C 13.464844 89.296875 13.285156 89.207031 13.015625 89.027344 C 13.195312 87.050781 13.285156 84.988281 13.464844 82.921875 C 13.554688 81.308594 13.195312 80.050781 11.308594 79.871094 C 9.515625 79.78125 8.886719 80.949219 8.796875 82.5625 C 8.617188 84.628906 8.4375 86.691406 8.347656 88.757812 C 6.285156 89.386719 3.050781 87.589844 2.78125 90.910156 C 2.421875 94.59375 6.195312 92.976562 7.539062 93.875 C 7.539062 96.207031 7.539062 98.363281 7.539062 100.425781 C 7.179688 115.957031 6.734375 131.484375 6.375 147.015625 C 6.285156 148.992188 6.375 150.875 6.105469 152.851562 C 4.308594 170.714844 3.230469 188.578125 3.769531 206.621094 C 3.769531 207.25 3.769531 207.964844 3.769531 208.683594 C 1.976562 208.773438 0.0898438 208.863281 0 211.109375 C 0 213.621094 2.15625 213.441406 3.949219 213.800781 C 3.949219 214.96875 3.949219 215.957031 3.949219 216.851562 C 3.949219 218.289062 3.859375 220.085938 5.65625 220.265625 C 6.734375 220.445312 7.988281 219.546875 9.515625 218.917969 C 10.054688 219.007812 11.847656 219.636719 12.207031 219.1875 C 13.195312 218.019531 13.464844 216.316406 14.273438 214.339844 C 14.183594 214.339844 14.542969 214.339844 14.992188 214.339844 C 26.660156 214.878906 38.328125 215.507812 49.910156 215.957031 C 95.871094 217.660156 141.828125 216.316406 187.789062 213.980469 C 211.847656 212.722656 235.90625 211.289062 259.960938 210.660156 C 293.355469 209.761719 326.746094 209.671875 360.230469 209.132812 C 382.3125 208.773438 404.484375 208.324219 426.566406 207.875 C 431.59375 207.785156 436.710938 207.429688 442.007812 207.160156 C 442.277344 210.480469 442.457031 213.710938 442.726562 216.851562 C 442.816406 218.378906 443.800781 219.367188 445.238281 218.917969 C 446.136719 218.648438 447.035156 217.480469 447.214844 216.496094 C 447.480469 214.96875 447.125 213.351562 447.035156 211.828125 C 446.855469 206.710938 446.40625 201.683594 446.585938 196.65625 C 446.765625 192.527344 447.75 188.488281 448.109375 184.359375 Z M 435.722656 202.671875 C 427.824219 203.03125 419.925781 203.296875 411.933594 203.65625 C 411.308594 203.65625 410.679688 203.65625 410.050781 203.386719 C 416.421875 202.761719 422.796875 202.132812 429.171875 201.414062 C 430.246094 201.324219 431.414062 200.695312 432.222656 199.976562 C 432.582031 199.617188 432.492188 198.183594 432.132812 197.734375 C 431.503906 197.105469 430.335938 196.566406 429.4375 196.65625 C 423.246094 197.195312 417.140625 198.003906 410.949219 198.453125 C 395.6875 199.617188 380.425781 201.054688 365.078125 201.863281 C 320.285156 204.285156 275.492188 202.671875 230.789062 203.386719 C 200.714844 203.835938 170.734375 205.183594 140.664062 205.8125 C 98.742188 206.621094 56.820312 207.25 14.902344 207.875 C 14.542969 207.875 14.183594 207.785156 13.015625 207.699219 C 13.015625 197.824219 13.105469 188.128906 13.015625 178.433594 C 12.925781 167.839844 12.027344 157.160156 12.746094 146.566406 C 13.734375 131.304688 15.886719 116.136719 17.59375 100.875 C 17.59375 100.695312 17.773438 100.515625 17.863281 100.066406 C 18.582031 100.066406 19.390625 100.066406 20.195312 100.066406 C 49.101562 99.800781 78.097656 99.621094 107 99.082031 C 120.105469 98.8125 133.121094 97.734375 146.226562 97.105469 C 157.089844 96.65625 167.863281 96.386719 178.722656 96.027344 C 198.742188 95.222656 218.757812 94.324219 238.777344 93.515625 C 252.242188 92.976562 265.707031 92.527344 279.082031 91.988281 C 304.125 91 329.082031 89.835938 354.125 89.117188 C 366.601562 88.757812 379.082031 89.117188 391.558594 89.476562 C 405.382812 89.925781 419.207031 90.820312 433.03125 91.539062 C 437.070312 91.71875 437.25 91.71875 437.699219 95.667969 C 438.328125 100.964844 438.953125 106.171875 439.042969 111.46875 C 439.492188 133.371094 439.671875 155.273438 440.121094 177.175781 C 440.210938 183.460938 440.75 189.742188 441.289062 195.9375 C 441.828125 201.683594 441.289062 202.402344 435.722656 202.671875 Z M 435.722656 202.671875 " fill-opacity="1" fill-rule="nonzero"/></g><g fill="#ffffff" fill-opacity="1"><g transform="translate(34.143884, 167.366991)"><g><path d="M 21.453125 -17.640625 C 21.523438 -17.515625 21.613281 -17.363281 21.71875 -17.1875 L 21.984375 -16.640625 C 22.234375 -16.160156 22.441406 -15.757812 22.609375 -15.4375 C 23.140625 -14.425781 23.59375 -13.507812 23.96875 -12.6875 C 25.03125 -10.25 25.59375 -8.175781 25.65625 -6.46875 L 25.65625 -6.25 C 25.65625 -1.925781 22.445312 0.234375 16.03125 0.234375 C 15.25 0.234375 14.421875 0.203125 13.546875 0.140625 L 13.25 0.109375 C 10.082031 -0.140625 7.585938 -1.117188 5.765625 -2.828125 C 4.503906 -3.984375 3.347656 -5.828125 2.296875 -8.359375 C 1.898438 -9.265625 1.546875 -10.328125 1.234375 -11.546875 L 0.875 -13.140625 L 0.53125 -14.796875 L 0.484375 -14.984375 L 0.421875 -15.203125 L 0.421875 -15.359375 C 0.421875 -15.460938 0.429688 -15.5625 0.453125 -15.65625 C 0.546875 -16.03125 0.882812 -16.253906 1.46875 -16.328125 L 1.609375 -16.328125 C 2.035156 -16.328125 2.34375 -16.164062 2.53125 -15.84375 C 2.601562 -15.71875 2.664062 -15.554688 2.71875 -15.359375 L 2.828125 -15.125 L 2.90625 -14.9375 C 3.15625 -14.257812 3.503906 -13.296875 3.953125 -12.046875 L 4.4375 -10.640625 L 4.9375 -9.171875 C 6.03125 -6.441406 7.5 -4.441406 9.34375 -3.171875 C 9.9375 -2.804688 10.546875 -2.488281 11.171875 -2.21875 C 11.878906 -1.945312 12.53125 -1.8125 13.125 -1.8125 L 13.21875 -1.8125 C 15.664062 -1.882812 16.890625 -2.984375 16.890625 -5.109375 L 16.890625 -5.484375 C 16.691406 -8.578125 14.238281 -13.972656 9.53125 -21.671875 C 9.164062 -22.234375 8.570312 -23.300781 7.75 -24.875 C 6.820312 -26.582031 5.894531 -28.335938 4.96875 -30.140625 C 2.507812 -35.015625 1.019531 -38.363281 0.5 -40.1875 C 0.164062 -41.425781 0 -42.554688 0 -43.578125 C 0 -46.160156 1.078125 -48.09375 3.234375 -49.375 C 4.972656 -50.382812 7.144531 -50.890625 9.75 -50.890625 C 10.53125 -50.890625 11.347656 -50.847656 12.203125 -50.765625 C 13.628906 -50.609375 14.832031 -50.054688 15.8125 -49.109375 C 17.863281 -47.171875 19.113281 -44.460938 19.5625 -40.984375 L 19.578125 -40.859375 L 19.578125 -40.6875 C 19.597656 -40.632812 19.609375 -40.582031 19.609375 -40.53125 C 19.609375 -40.476562 19.597656 -40.425781 19.578125 -40.375 C 19.472656 -40.101562 19.242188 -39.96875 18.890625 -39.96875 L 18.84375 -39.96875 C 18.625 -39.96875 18.453125 -40.054688 18.328125 -40.234375 C 18.296875 -40.285156 18.269531 -40.375 18.25 -40.5 L 18.1875 -40.640625 L 18.171875 -40.75 C 18.066406 -41.050781 17.953125 -41.429688 17.828125 -41.890625 L 17.53125 -43.0625 C 17.257812 -43.976562 16.957031 -44.726562 16.625 -45.3125 C 16.257812 -45.914062 15.785156 -46.578125 15.203125 -47.296875 C 13.992188 -48.484375 12.453125 -49.140625 10.578125 -49.265625 C 10.367188 -49.285156 10.15625 -49.296875 9.9375 -49.296875 C 9.507812 -49.296875 9.09375 -49.257812 8.6875 -49.1875 C 8.46875 -49.15625 8.253906 -49.117188 8.046875 -49.078125 C 7.972656 -49.054688 7.898438 -49.039062 7.828125 -49.03125 L 7.75 -49 L 7.6875 -49 C 6.90625 -48.726562 6.335938 -48.273438 5.984375 -47.640625 C 5.828125 -47.335938 5.75 -47.023438 5.75 -46.703125 C 5.75 -46.421875 5.828125 -46.132812 5.984375 -45.84375 L 7.421875 -43.65625 C 7.972656 -42.800781 8.421875 -42.082031 8.765625 -41.5 C 9.191406 -40.675781 9.757812 -39.570312 10.46875 -38.1875 L 11.328125 -36.53125 L 12.1875 -34.859375 L 15.6875 -28.40625 L 19.1875 -21.90625 L 20.328125 -19.765625 C 20.796875 -18.929688 21.171875 -18.222656 21.453125 -17.640625 Z M 21.453125 -17.640625 "/></g></g></g><g fill="#ffffff" fill-opacity="1"><g transform="translate(65.128074, 167.366991)"><g><path d="M 12.75 -29.3125 C 12.507812 -28.5625 12.3125 -27.707031 12.15625 -26.75 L 11.84375 -24.203125 L 11.65625 -22.28125 C 11.5625 -21.550781 11.453125 -20.910156 11.328125 -20.359375 L 11.25 -19.765625 C 11.207031 -19.460938 11.34375 -19.3125 11.65625 -19.3125 C 11.882812 -19.3125 12.113281 -19.335938 12.34375 -19.390625 L 14.859375 -19.953125 C 15.390625 -20.078125 15.582031 -20.425781 15.4375 -21 L 15.203125 -21.859375 L 14.484375 -24.015625 L 13.921875 -25.859375 L 13.328125 -27.734375 L 13.0625 -28.515625 Z M 0.296875 -0.046875 L 0.328125 -0.9375 C 0.304688 -1.289062 0.320312 -1.691406 0.375 -2.140625 C 0.445312 -2.597656 0.484375 -3.0625 0.484375 -3.53125 C 0.429688 -4.789062 0.570312 -6.640625 0.90625 -9.078125 L 1.234375 -11.859375 L 1.546875 -15.046875 L 1.875 -18.1875 L 2.1875 -20.28125 L 2.515625 -23.53125 L 2.859375 -26.828125 L 3.078125 -28.59375 L 3.3125 -30.375 L 3.53125 -32.03125 L 3.765625 -33.6875 C 3.941406 -35.007812 4.039062 -36.113281 4.0625 -37 L 4.140625 -37.640625 L 4.25 -38.28125 L 4.65625 -41.65625 C 4.707031 -42.15625 4.921875 -42.46875 5.296875 -42.59375 C 5.804688 -42.78125 6.238281 -43.160156 6.59375 -43.734375 L 6.765625 -43.953125 L 6.921875 -44.140625 C 7.117188 -44.335938 7.296875 -44.363281 7.453125 -44.21875 C 7.628906 -44.09375 7.894531 -43.957031 8.25 -43.8125 L 8.6875 -43.65625 L 9.0625 -43.4375 C 9.394531 -43.207031 9.800781 -43.082031 10.28125 -43.0625 C 11.457031 -43.050781 12.332031 -42.394531 12.90625 -41.09375 C 13.632812 -39.4375 14.4375 -37.039062 15.3125 -33.90625 L 15.84375 -32.09375 L 16.328125 -30.265625 L 16.59375 -29.5 L 16.859375 -28.75 L 17.359375 -27.203125 L 17.875 -25.625 C 18.300781 -24.34375 18.613281 -23.289062 18.8125 -22.46875 C 18.988281 -21.8125 19.253906 -21.132812 19.609375 -20.4375 L 19.984375 -19.5 L 20.3125 -18.5625 L 21.640625 -15.234375 L 21.796875 -14.90625 L 21.875 -14.59375 C 21.914062 -14.050781 22.0625 -13.460938 22.3125 -12.828125 L 22.625 -12.015625 L 23 -11.1875 C 23.320312 -10.507812 23.660156 -9.710938 24.015625 -8.796875 L 24.90625 -6.359375 C 25.1875 -5.585938 25.523438 -4.757812 25.921875 -3.875 C 26.148438 -3.34375 26.304688 -2.773438 26.390625 -2.171875 C 26.429688 -1.921875 26.429688 -1.648438 26.390625 -1.359375 C 26.304688 -0.679688 25.914062 -0.289062 25.21875 -0.1875 C 24.914062 -0.132812 24.6875 -0.222656 24.53125 -0.453125 L 23.890625 -1.328125 L 23.25 -2.21875 C 22.726562 -2.914062 22.34375 -3.539062 22.09375 -4.09375 L 21.046875 -6.21875 L 20.03125 -8.359375 C 19.289062 -10.003906 18.6875 -11.46875 18.21875 -12.75 L 17.53125 -14.71875 L 16.828125 -16.703125 L 16.75 -16.96875 L 16.640625 -17.265625 C 16.515625 -17.578125 16.257812 -17.707031 15.875 -17.65625 C 14.425781 -17.457031 13.265625 -17.414062 12.390625 -17.53125 C 11.785156 -17.613281 11.382812 -17.578125 11.1875 -17.421875 C 11 -17.265625 10.859375 -16.878906 10.765625 -16.265625 L 9.109375 -5.84375 L 8.84375 -4.5625 L 8.234375 -1.953125 C 7.910156 -0.347656 7.4375 0.914062 6.8125 1.84375 C 6.65625 2.09375 6.53125 2.441406 6.4375 2.890625 C 6.332031 3.453125 5.96875 3.96875 5.34375 4.4375 C 4.71875 4.882812 4.113281 5.085938 3.53125 5.046875 L 2.25 5 C 1.90625 5.007812 1.582031 4.921875 1.28125 4.734375 L 0.90625 4.4375 L 0.53125 4.09375 C 0.175781 3.75 0.015625 3.257812 0.046875 2.625 Z M 0.296875 -0.046875 "/></g></g></g><g fill="#ffffff" fill-opacity="1"><g transform="translate(96.646473, 167.366991)"><g><path d="M 11.625 -11.65625 C 11.570312 -9.195312 10.53125 -6.84375 8.5 -4.59375 C 8.425781 -4.519531 8.375 -4.421875 8.34375 -4.296875 C 8.300781 -4.171875 8.300781 -4.082031 8.34375 -4.03125 C 8.40625 -3.90625 8.5 -3.863281 8.625 -3.90625 L 8.8125 -3.984375 L 8.984375 -4.0625 L 10.609375 -4.890625 C 11.242188 -5.210938 11.769531 -5.515625 12.1875 -5.796875 C 15.457031 -8.054688 18.179688 -11.078125 20.359375 -14.859375 C 23.398438 -20.179688 24.503906 -25.265625 23.671875 -30.109375 C 23.085938 -33.441406 20.832031 -37.015625 16.90625 -40.828125 L 15.578125 -42.15625 C 15.046875 -42.675781 14.582031 -43.097656 14.1875 -43.421875 C 13.101562 -44.328125 12.007812 -44.945312 10.90625 -45.28125 L 10.6875 -45.375 L 10.5 -45.5 C 10.320312 -45.570312 10.171875 -45.554688 10.046875 -45.453125 C 9.941406 -45.335938 9.90625 -45.191406 9.9375 -45.015625 L 10 -44.78125 L 10.078125 -44.5625 L 10.609375 -42.453125 L 11.171875 -40.34375 C 11.554688 -38.707031 11.804688 -37.28125 11.921875 -36.0625 C 12.253906 -31.757812 12.320312 -27.691406 12.125 -23.859375 L 12.078125 -20.921875 L 12.109375 -17.921875 C 12.109375 -15.460938 11.945312 -13.375 11.625 -11.65625 Z M 28.484375 -21.265625 C 28.003906 -17.742188 25.738281 -13.738281 21.6875 -9.25 C 19.71875 -7.050781 17.304688 -5.285156 14.453125 -3.953125 C 12.828125 -3.203125 10.757812 -2.75 8.25 -2.59375 L 7.9375 -2.59375 L 7.59375 -2.5625 C 7.320312 -2.53125 7.171875 -2.425781 7.140625 -2.25 C 6.921875 -1.394531 6.394531 -0.875 5.5625 -0.6875 L 5.015625 -0.59375 L 4.46875 -0.53125 C 4 -0.476562 3.640625 -0.398438 3.390625 -0.296875 C 2.429688 0.128906 1.78125 0.09375 1.4375 -0.40625 C 1.300781 -0.582031 1.195312 -0.859375 1.125 -1.234375 L 1.046875 -1.734375 L 0.9375 -2.25 C 0.664062 -3.757812 0.578125 -5.570312 0.671875 -7.6875 L 0.828125 -10.421875 L 0.984375 -13.140625 C 1.109375 -15.921875 1.15625 -19.082031 1.125 -22.625 L 0.90625 -32.109375 C 0.882812 -33.285156 0.8125 -34.710938 0.6875 -36.390625 L 0.375 -40.671875 C 0.125 -44.160156 0.078125 -47.015625 0.234375 -49.234375 C 0.273438 -49.859375 0.460938 -50.179688 0.796875 -50.203125 C 1.765625 -50.234375 2.351562 -50.847656 2.5625 -52.046875 L 2.625 -52.3125 L 2.703125 -52.578125 C 2.785156 -52.773438 2.941406 -52.875 3.171875 -52.875 C 3.390625 -52.875 3.550781 -52.785156 3.65625 -52.609375 L 3.734375 -52.34375 L 3.796875 -52.046875 C 3.929688 -51.171875 4.472656 -50.632812 5.421875 -50.4375 C 6.023438 -50.300781 6.625 -50 7.21875 -49.53125 C 7.601562 -49.25 8.09375 -48.78125 8.6875 -48.125 C 9.0625 -47.726562 9.53125 -47.484375 10.09375 -47.390625 L 12.1875 -47.03125 L 14.234375 -46.5625 C 15.753906 -46.207031 17.082031 -45.765625 18.21875 -45.234375 C 18.9375 -44.890625 19.660156 -44.300781 20.390625 -43.46875 L 21.265625 -42.40625 C 21.609375 -41.988281 21.910156 -41.65625 22.171875 -41.40625 C 26.335938 -37.476562 28.507812 -31.617188 28.6875 -23.828125 L 28.6875 -22.46875 C 28.675781 -21.96875 28.609375 -21.566406 28.484375 -21.265625 Z M 28.484375 -21.265625 "/></g></g></g><g fill="#ffffff" fill-opacity="1"><g transform="translate(131.476976, 167.366991)"><g><path d="M 18.5625 -21.328125 C 18.6875 -15.003906 18.40625 -9.285156 17.71875 -4.171875 L 17.640625 -3.609375 L 17.53125 -3.09375 C 17.414062 -2.707031 17.203125 -2.367188 16.890625 -2.078125 C 16.640625 -1.847656 16.613281 -1.695312 16.8125 -1.625 L 17.078125 -1.609375 L 17.359375 -1.609375 L 19.203125 -1.5 L 21.03125 -1.421875 L 21.328125 -1.359375 L 21.59375 -1.3125 C 21.769531 -1.21875 21.859375 -1.054688 21.859375 -0.828125 C 21.859375 -0.328125 21.582031 -0.0507812 21.03125 0 L 19.796875 0.140625 L 18.5625 0.21875 C 17.570312 0.289062 16.753906 0.40625 16.109375 0.5625 C 14.921875 0.832031 13.1875 0.832031 10.90625 0.5625 L 8.3125 0.265625 C 7.34375 0.210938 6.46875 0.273438 5.6875 0.453125 C 5.488281 0.484375 5.335938 0.441406 5.234375 0.328125 L 5.109375 0.109375 L 5 -0.140625 C 4.851562 -0.648438 5.046875 -0.976562 5.578125 -1.125 C 6.671875 -1.375 7.546875 -1.503906 8.203125 -1.515625 C 9.085938 -1.578125 9.53125 -2.050781 9.53125 -2.9375 C 9.550781 -12.539062 8.617188 -26.65625 6.734375 -45.28125 C 6.640625 -46.28125 6.140625 -46.738281 5.234375 -46.65625 L 4.109375 -46.65625 L 3.015625 -46.75 C 2.109375 -46.789062 1.367188 -46.738281 0.796875 -46.59375 C 0.515625 -46.519531 0.296875 -46.59375 0.140625 -46.8125 C 0.046875 -46.914062 0.0234375 -47.039062 0.078125 -47.1875 L 0.296875 -47.5 C 0.648438 -48.039062 1.203125 -48.300781 1.953125 -48.28125 C 3.753906 -48.207031 6.226562 -48.367188 9.375 -48.765625 L 13.09375 -49.234375 C 14.476562 -49.378906 15.71875 -49.453125 16.8125 -49.453125 L 17.71875 -49.453125 C 18.09375 -49.453125 18.394531 -49.414062 18.625 -49.34375 C 19.28125 -49.21875 19.65625 -48.90625 19.75 -48.40625 C 19.800781 -48 19.523438 -47.691406 18.921875 -47.484375 L 18.109375 -47.234375 L 17.3125 -47.046875 C 17.15625 -46.972656 16.90625 -46.929688 16.5625 -46.921875 L 15.8125 -46.8125 L 15.515625 -46.734375 L 15.3125 -46.5625 C 15.144531 -46.40625 15.160156 -46.226562 15.359375 -46.03125 C 15.910156 -45.53125 16.25 -44.875 16.375 -44.0625 L 16.484375 -42.9375 L 16.53125 -41.875 L 17.234375 -36.765625 L 17.84375 -31.609375 C 18.289062 -27.691406 18.53125 -24.265625 18.5625 -21.328125 Z M 18.5625 -21.328125 "/></g></g></g><g fill="#ffffff" fill-opacity="1"><g transform="translate(158.668273, 167.366991)"><g><path d="M 12.75 -29.3125 C 12.507812 -28.5625 12.3125 -27.707031 12.15625 -26.75 L 11.84375 -24.203125 L 11.65625 -22.28125 C 11.5625 -21.550781 11.453125 -20.910156 11.328125 -20.359375 L 11.25 -19.765625 C 11.207031 -19.460938 11.34375 -19.3125 11.65625 -19.3125 C 11.882812 -19.3125 12.113281 -19.335938 12.34375 -19.390625 L 14.859375 -19.953125 C 15.390625 -20.078125 15.582031 -20.425781 15.4375 -21 L 15.203125 -21.859375 L 14.484375 -24.015625 L 13.921875 -25.859375 L 13.328125 -27.734375 L 13.0625 -28.515625 Z M 0.296875 -0.046875 L 0.328125 -0.9375 C 0.304688 -1.289062 0.320312 -1.691406 0.375 -2.140625 C 0.445312 -2.597656 0.484375 -3.0625 0.484375 -3.53125 C 0.429688 -4.789062 0.570312 -6.640625 0.90625 -9.078125 L 1.234375 -11.859375 L 1.546875 -15.046875 L 1.875 -18.1875 L 2.1875 -20.28125 L 2.515625 -23.53125 L 2.859375 -26.828125 L 3.078125 -28.59375 L 3.3125 -30.375 L 3.53125 -32.03125 L 3.765625 -33.6875 C 3.941406 -35.007812 4.039062 -36.113281 4.0625 -37 L 4.140625 -37.640625 L 4.25 -38.28125 L 4.65625 -41.65625 C 4.707031 -42.15625 4.921875 -42.46875 5.296875 -42.59375 C 5.804688 -42.78125 6.238281 -43.160156 6.59375 -43.734375 L 6.765625 -43.953125 L 6.921875 -44.140625 C 7.117188 -44.335938 7.296875 -44.363281 7.453125 -44.21875 C 7.628906 -44.09375 7.894531 -43.957031 8.25 -43.8125 L 8.6875 -43.65625 L 9.0625 -43.4375 C 9.394531 -43.207031 9.800781 -43.082031 10.28125 -43.0625 C 11.457031 -43.050781 12.332031 -42.394531 12.90625 -41.09375 C 13.632812 -39.4375 14.4375 -37.039062 15.3125 -33.90625 L 15.84375 -32.09375 L 16.328125 -30.265625 L 16.59375 -29.5 L 16.859375 -28.75 L 17.359375 -27.203125 L 17.875 -25.625 C 18.300781 -24.34375 18.613281 -23.289062 18.8125 -22.46875 C 18.988281 -21.8125 19.253906 -21.132812 19.609375 -20.4375 L 19.984375 -19.5 L 20.3125 -18.5625 L 21.640625 -15.234375 L 21.796875 -14.90625 L 21.875 -14.59375 C 21.914062 -14.050781 22.0625 -13.460938 22.3125 -12.828125 L 22.625 -12.015625 L 23 -11.1875 C 23.320312 -10.507812 23.660156 -9.710938 24.015625 -8.796875 L 24.90625 -6.359375 C 25.1875 -5.585938 25.523438 -4.757812 25.921875 -3.875 C 26.148438 -3.34375 26.304688 -2.773438 26.390625 -2.171875 C 26.429688 -1.921875 26.429688 -1.648438 26.390625 -1.359375 C 26.304688 -0.679688 25.914062 -0.289062 25.21875 -0.1875 C 24.914062 -0.132812 24.6875 -0.222656 24.53125 -0.453125 L 23.890625 -1.328125 L 23.25 -2.21875 C 22.726562 -2.914062 22.34375 -3.539062 22.09375 -4.09375 L 21.046875 -6.21875 L 20.03125 -8.359375 C 19.289062 -10.003906 18.6875 -11.46875 18.21875 -12.75 L 17.53125 -14.71875 L 16.828125 -16.703125 L 16.75 -16.96875 L 16.640625 -17.265625 C 16.515625 -17.578125 16.257812 -17.707031 15.875 -17.65625 C 14.425781 -17.457031 13.265625 -17.414062 12.390625 -17.53125 C 11.785156 -17.613281 11.382812 -17.578125 11.1875 -17.421875 C 11 -17.265625 10.859375 -16.878906 10.765625 -16.265625 L 9.109375 -5.84375 L 8.84375 -4.5625 L 8.234375 -1.953125 C 7.910156 -0.347656 7.4375 0.914062 6.8125 1.84375 C 6.65625 2.09375 6.53125 2.441406 6.4375 2.890625 C 6.332031 3.453125 5.96875 3.96875 5.34375 4.4375 C 4.71875 4.882812 4.113281 5.085938 3.53125 5.046875 L 2.25 5 C 1.90625 5.007812 1.582031 4.921875 1.28125 4.734375 L 0.90625 4.4375 L 0.53125 4.09375 C 0.175781 3.75 0.015625 3.257812 0.046875 2.625 Z M 0.296875 -0.046875 "/></g></g></g><g fill="#ffffff" fill-opacity="1"><g transform="translate(190.186673, 167.366991)"><g/></g></g><g fill="#ffffff" fill-opacity="1"><g transform="translate(206.212977, 167.366991)"><g><path d="M 10.203125 -28.609375 L 10.234375 -27.65625 C 10.253906 -27.363281 10.304688 -27.085938 10.390625 -26.828125 C 10.484375 -26.503906 10.679688 -26.40625 10.984375 -26.53125 L 11.859375 -26.90625 L 12.71875 -27.328125 C 13.363281 -27.648438 13.890625 -28.015625 14.296875 -28.421875 C 14.847656 -28.941406 15.160156 -29.523438 15.234375 -30.171875 C 15.390625 -31.660156 15.328125 -32.976562 15.046875 -34.125 C 14.566406 -35.9375 13.515625 -37.367188 11.890625 -38.421875 C 11.421875 -38.703125 10.984375 -38.753906 10.578125 -38.578125 L 10.28125 -38.46875 L 9.96875 -38.375 C 9.71875 -38.28125 9.601562 -38.09375 9.625 -37.8125 L 10.046875 -31.828125 L 10.234375 -28.609375 Z M 10.609375 -18.65625 C 10.253906 -16.300781 10.117188 -14.285156 10.203125 -12.609375 C 10.222656 -12.128906 10.179688 -11.5625 10.078125 -10.90625 C 9.984375 -10.363281 9.945312 -9.765625 9.96875 -9.109375 L 9.90625 -7.21875 L 9.8125 -5.375 L 9.75 2.453125 C 9.75 3.304688 9.625 4.003906 9.375 4.546875 L 9.171875 5.015625 L 8.984375 5.53125 C 8.835938 5.9375 8.679688 6.257812 8.515625 6.5 L 8.3125 6.8125 L 8.09375 7.109375 C 7.71875 7.535156 7.265625 7.632812 6.734375 7.40625 L 5.234375 6.703125 L 3.734375 6.015625 C 2.742188 5.566406 2.175781 4.71875 2.03125 3.46875 L 1.84375 1.359375 L 1.65625 -0.5625 L 1.546875 -2.484375 L 1.46875 -4.140625 L 1.28125 -5.796875 L 0.6875 -11.015625 C 0.582031 -11.878906 0.492188 -12.960938 0.421875 -14.265625 L 0.21875 -17.5 C 0.0703125 -19.601562 0.0078125 -22.050781 0.03125 -24.84375 L 0.078125 -28.515625 L 0.140625 -32.171875 L 0.21875 -36.796875 L 0.296875 -41.390625 C 0.316406 -42.316406 0.570312 -43.082031 1.0625 -43.6875 C 1.488281 -44.195312 2.007812 -44.453125 2.625 -44.453125 C 3.382812 -44.441406 3.953125 -44.398438 4.328125 -44.328125 L 5.578125 -44.078125 L 6.84375 -43.8125 C 7.34375 -43.707031 7.71875 -43.40625 7.96875 -42.90625 C 8.320312 -42.175781 8.675781 -41.644531 9.03125 -41.3125 L 9.1875 -41.09375 L 9.296875 -40.859375 C 9.523438 -40.390625 9.898438 -40.207031 10.421875 -40.3125 L 10.640625 -40.34375 L 10.84375 -40.390625 C 11.695312 -40.703125 12.609375 -40.550781 13.578125 -39.9375 C 14.503906 -39.375 15.535156 -38.265625 16.671875 -36.609375 C 17.503906 -35.410156 18.019531 -34.207031 18.21875 -33 C 18.488281 -31.351562 18.238281 -29.800781 17.46875 -28.34375 C 17.3125 -28.019531 17.046875 -27.644531 16.671875 -27.21875 L 16.25 -26.6875 L 15.84375 -26.125 C 15.664062 -25.875 15.351562 -25.644531 14.90625 -25.4375 L 14.21875 -25.140625 C 13.789062 -24.929688 13.679688 -24.617188 13.890625 -24.203125 L 14.53125 -22.875 L 15.234375 -21.53125 L 16.140625 -20.0625 L 17.046875 -18.625 L 17.453125 -18.015625 C 18.054688 -16.890625 18.875 -15.515625 19.90625 -13.890625 L 21.15625 -11.890625 L 22.4375 -9.890625 L 22.875 -9.265625 C 23.3125 -8.703125 23.789062 -8.019531 24.3125 -7.21875 L 25.671875 -5.109375 L 27.328125 -2.484375 C 27.671875 -1.953125 27.957031 -1.375 28.1875 -0.75 C 28.457031 -0.0195312 28.492188 0.566406 28.296875 1.015625 C 28.222656 1.210938 28.210938 1.414062 28.265625 1.625 C 28.335938 1.914062 28.328125 2.21875 28.234375 2.53125 L 28.109375 2.96875 L 27.953125 3.390625 C 27.890625 3.554688 27.765625 3.671875 27.578125 3.734375 C 27.097656 3.929688 26.796875 4.015625 26.671875 3.984375 C 26.523438 3.941406 26.300781 3.71875 26 3.3125 L 25.515625 2.59375 C 25.296875 2.1875 25.003906 1.835938 24.640625 1.546875 C 24.222656 1.222656 23.847656 0.796875 23.515625 0.265625 L 22.28125 -1.609375 L 21.875 -2.109375 C 21.382812 -2.640625 20.800781 -3.363281 20.125 -4.28125 L 18.46875 -6.5 C 17.195312 -8.082031 16.222656 -9.40625 15.546875 -10.46875 L 14.375 -12.265625 L 13.171875 -14.03125 C 12.515625 -14.988281 11.9375 -16.007812 11.4375 -17.09375 L 11.0625 -17.875 Z M 10.609375 -18.65625 "/></g></g></g><g fill="#ffffff" fill-opacity="1"><g transform="translate(239.520981, 167.366991)"><g><path d="M 12.75 -29.3125 C 12.507812 -28.5625 12.3125 -27.707031 12.15625 -26.75 L 11.84375 -24.203125 L 11.65625 -22.28125 C 11.5625 -21.550781 11.453125 -20.910156 11.328125 -20.359375 L 11.25 -19.765625 C 11.207031 -19.460938 11.34375 -19.3125 11.65625 -19.3125 C 11.882812 -19.3125 12.113281 -19.335938 12.34375 -19.390625 L 14.859375 -19.953125 C 15.390625 -20.078125 15.582031 -20.425781 15.4375 -21 L 15.203125 -21.859375 L 14.484375 -24.015625 L 13.921875 -25.859375 L 13.328125 -27.734375 L 13.0625 -28.515625 Z M 0.296875 -0.046875 L 0.328125 -0.9375 C 0.304688 -1.289062 0.320312 -1.691406 0.375 -2.140625 C 0.445312 -2.597656 0.484375 -3.0625 0.484375 -3.53125 C 0.429688 -4.789062 0.570312 -6.640625 0.90625 -9.078125 L 1.234375 -11.859375 L 1.546875 -15.046875 L 1.875 -18.1875 L 2.1875 -20.28125 L 2.515625 -23.53125 L 2.859375 -26.828125 L 3.078125 -28.59375 L 3.3125 -30.375 L 3.53125 -32.03125 L 3.765625 -33.6875 C 3.941406 -35.007812 4.039062 -36.113281 4.0625 -37 L 4.140625 -37.640625 L 4.25 -38.28125 L 4.65625 -41.65625 C 4.707031 -42.15625 4.921875 -42.46875 5.296875 -42.59375 C 5.804688 -42.78125 6.238281 -43.160156 6.59375 -43.734375 L 6.765625 -43.953125 L 6.921875 -44.140625 C 7.117188 -44.335938 7.296875 -44.363281 7.453125 -44.21875 C 7.628906 -44.09375 7.894531 -43.957031 8.25 -43.8125 L 8.6875 -43.65625 L 9.0625 -43.4375 C 9.394531 -43.207031 9.800781 -43.082031 10.28125 -43.0625 C 11.457031 -43.050781 12.332031 -42.394531 12.90625 -41.09375 C 13.632812 -39.4375 14.4375 -37.039062 15.3125 -33.90625 L 15.84375 -32.09375 L 16.328125 -30.265625 L 16.59375 -29.5 L 16.859375 -28.75 L 17.359375 -27.203125 L 17.875 -25.625 C 18.300781 -24.34375 18.613281 -23.289062 18.8125 -22.46875 C 18.988281 -21.8125 19.253906 -21.132812 19.609375 -20.4375 L 19.984375 -19.5 L 20.3125 -18.5625 L 21.640625 -15.234375 L 21.796875 -14.90625 L 21.875 -14.59375 C 21.914062 -14.050781 22.0625 -13.460938 22.3125 -12.828125 L 22.625 -12.015625 L 23 -11.1875 C 23.320312 -10.507812 23.660156 -9.710938 24.015625 -8.796875 L 24.90625 -6.359375 C 25.1875 -5.585938 25.523438 -4.757812 25.921875 -3.875 C 26.148438 -3.34375 26.304688 -2.773438 26.390625 -2.171875 C 26.429688 -1.921875 26.429688 -1.648438 26.390625 -1.359375 C 26.304688 -0.679688 25.914062 -0.289062 25.21875 -0.1875 C 24.914062 -0.132812 24.6875 -0.222656 24.53125 -0.453125 L 23.890625 -1.328125 L 23.25 -2.21875 C 22.726562 -2.914062 22.34375 -3.539062 22.09375 -4.09375 L 21.046875 -6.21875 L 20.03125 -8.359375 C 19.289062 -10.003906 18.6875 -11.46875 18.21875 -12.75 L 17.53125 -14.71875 L 16.828125 -16.703125 L 16.75 -16.96875 L 16.640625 -17.265625 C 16.515625 -17.578125 16.257812 -17.707031 15.875 -17.65625 C 14.425781 -17.457031 13.265625 -17.414062 12.390625 -17.53125 C 11.785156 -17.613281 11.382812 -17.578125 11.1875 -17.421875 C 11 -17.265625 10.859375 -16.878906 10.765625 -16.265625 L 9.109375 -5.84375 L 8.84375 -4.5625 L 8.234375 -1.953125 C 7.910156 -0.347656 7.4375 0.914062 6.8125 1.84375 C 6.65625 2.09375 6.53125 2.441406 6.4375 2.890625 C 6.332031 3.453125 5.96875 3.96875 5.34375 4.4375 C 4.71875 4.882812 4.113281 5.085938 3.53125 5.046875 L 2.25 5 C 1.90625 5.007812 1.582031 4.921875 1.28125 4.734375 L 0.90625 4.4375 L 0.53125 4.09375 C 0.175781 3.75 0.015625 3.257812 0.046875 2.625 Z M 0.296875 -0.046875 "/></g></g></g><g fill="#ffffff" fill-opacity="1"><g transform="translate(271.03938, 167.366991)"><g><path d="M 30.375 -44.40625 C 29.988281 -45.84375 29.195312 -46.671875 28 -46.890625 C 26.570312 -47.140625 25.289062 -46.890625 24.15625 -46.140625 C 23.007812 -45.359375 22.421875 -44.332031 22.390625 -43.0625 L 22.125 -37.109375 L 21.875 -31.1875 C 21.84375 -30.21875 21.453125 -29.457031 20.703125 -28.90625 C 19.515625 -28.070312 18.09375 -27.507812 16.4375 -27.21875 C 15.769531 -27.09375 15.007812 -27.003906 14.15625 -26.953125 L 11.859375 -26.875 C 11.554688 -26.875 11.367188 -26.988281 11.296875 -27.21875 L 11.25 -27.578125 L 11.25 -27.921875 L 11.1875 -31.046875 C 11.175781 -32.296875 11.125 -33.328125 11.03125 -34.140625 L 10.5 -39.296875 L 9.859375 -44.453125 L 9.78125 -45.1875 L 9.703125 -45.90625 C 9.648438 -46.457031 9.550781 -46.898438 9.40625 -47.234375 C 9.050781 -48.140625 8.285156 -48.664062 7.109375 -48.8125 L 5.609375 -48.96875 L 4.109375 -49.046875 C 2.992188 -49.015625 2.050781 -48.695312 1.28125 -48.09375 C 0.53125 -47.507812 0.179688 -46.804688 0.234375 -45.984375 C 0.429688 -43.078125 0.519531 -39.367188 0.5 -34.859375 L 0.484375 -29.34375 L 0.5 -23.78125 L 0.640625 -16.9375 L 0.6875 -10.078125 C 0.65625 -4.941406 0.453125 -0.378906 0.078125 3.609375 C 0.0234375 4.234375 0.195312 4.695312 0.59375 5 C 1 5.300781 1.429688 5.28125 1.890625 4.9375 C 2.515625 4.5 3.390625 4.382812 4.515625 4.59375 C 6.421875 4.96875 7.675781 4.34375 8.28125 2.71875 C 8.90625 1.101562 9.320312 -0.441406 9.53125 -1.921875 C 9.976562 -5.128906 10.316406 -8.765625 10.546875 -12.828125 L 10.796875 -18.28125 L 11.015625 -23.71875 C 11.023438 -24.613281 11.492188 -25.015625 12.421875 -24.921875 L 14.40625 -24.6875 L 16.375 -24.5 C 17.894531 -24.394531 19.210938 -24.53125 20.328125 -24.90625 C 21.003906 -25.132812 21.363281 -24.832031 21.40625 -24 L 21.5625 -20.515625 L 21.75 -17.078125 L 21.75 -12.015625 C 21.800781 -10.078125 21.988281 -8.414062 22.3125 -7.03125 L 22.359375 -6.703125 L 22.421875 -6.328125 C 22.484375 -6.078125 22.613281 -5.988281 22.8125 -6.0625 C 23.03125 -6.15625 23.300781 -6.21875 23.625 -6.25 L 24.421875 -6.328125 C 25.078125 -6.421875 25.578125 -6.671875 25.921875 -7.078125 C 26.304688 -7.578125 26.800781 -7.84375 27.40625 -7.875 C 28.726562 -7.945312 29.550781 -8.644531 29.875 -9.96875 C 30.382812 -12.195312 30.800781 -14.9375 31.125 -18.1875 L 31.71875 -24.765625 C 31.894531 -27.191406 31.984375 -29.375 31.984375 -31.3125 C 32.003906 -36.175781 31.46875 -40.539062 30.375 -44.40625 Z M 30.375 -44.40625 "/></g></g></g><g fill="#ffffff" fill-opacity="1"><g transform="translate(308.38067, 167.366991)"><g><path d="M 38.984375 -5.671875 L 38.6875 -10.34375 L 38.6875 -10.578125 L 38.65625 -11.734375 L 38.578125 -12.84375 C 38.421875 -14.1875 38.359375 -15.941406 38.390625 -18.109375 L 38.46875 -22.34375 C 38.488281 -23.382812 38.585938 -24.210938 38.765625 -24.828125 C 39.015625 -25.640625 39.039062 -26.429688 38.84375 -27.203125 C 38.707031 -27.710938 38.679688 -28.238281 38.765625 -28.78125 C 38.867188 -29.414062 38.851562 -30.132812 38.71875 -30.9375 L 38.546875 -32.296875 C 38.359375 -33.953125 38.03125 -35.757812 37.5625 -37.71875 C 37.425781 -38.382812 37.148438 -39.046875 36.734375 -39.703125 L 36.390625 -40.234375 L 36.09375 -40.796875 C 35.769531 -41.441406 35.265625 -41.878906 34.578125 -42.109375 L 34.09375 -42.265625 C 33.914062 -42.335938 33.773438 -42.425781 33.671875 -42.53125 C 33.378906 -42.875 32.957031 -43.019531 32.40625 -42.96875 C 31.300781 -42.84375 30.007812 -42.8125 28.53125 -42.875 L 27.84375 -42.828125 C 27.488281 -42.753906 27.289062 -42.550781 27.25 -42.21875 L 27.203125 -41.703125 L 27.171875 -41.203125 C 27.203125 -40.660156 27.035156 -40.171875 26.671875 -39.734375 C 25.898438 -38.804688 25.191406 -37.335938 24.546875 -35.328125 L 24.203125 -34.359375 L 22.796875 -30.359375 C 22.273438 -28.835938 21.875 -27.488281 21.59375 -26.3125 L 20.625 -22.65625 L 20.46875 -22.046875 C 20.394531 -21.828125 20.28125 -21.648438 20.125 -21.515625 C 19.945312 -21.648438 19.773438 -21.832031 19.609375 -22.0625 L 19.203125 -22.6875 L 17.53125 -25.546875 C 16.988281 -26.472656 16.625 -27.1875 16.4375 -27.6875 L 14.859375 -31.546875 C 14.234375 -33.023438 13.660156 -34.289062 13.140625 -35.34375 C 12.328125 -36.96875 11.484375 -38.191406 10.609375 -39.015625 L 10.390625 -39.203125 L 10.265625 -39.4375 C 10.191406 -39.707031 10.03125 -40.023438 9.78125 -40.390625 L 9.484375 -40.859375 L 9.25 -41.328125 C 8.875 -42.253906 8.175781 -42.863281 7.15625 -43.15625 C 6.300781 -43.40625 5.359375 -43.507812 4.328125 -43.46875 C 3.453125 -43.4375 2.773438 -43.222656 2.296875 -42.828125 C 1.640625 -42.296875 1.097656 -41.816406 0.671875 -41.390625 C 0.367188 -41.066406 0.234375 -40.679688 0.265625 -40.234375 L 0.40625 -38.421875 L 0.484375 -33.03125 L 0.5 -31.734375 L 0.609375 -30.453125 C 0.703125 -29.367188 0.738281 -28.515625 0.71875 -27.890625 L 0.78125 -26.234375 L 0.828125 -24.578125 L 0.796875 -22.3125 L 0.75 -20.015625 L 0.75 -17.203125 L 0.6875 -14.40625 C 0.601562 -11.101562 0.675781 -8.519531 0.90625 -6.65625 C 0.957031 -6.238281 0.976562 -5.851562 0.96875 -5.5 C 0.945312 -4.875 1.0625 -4.195312 1.3125 -3.46875 L 1.765625 -2.0625 C 1.867188 -1.664062 2.125 -1.242188 2.53125 -0.796875 C 2.976562 -0.296875 3.703125 0.00390625 4.703125 0.109375 C 5.710938 0.234375 6.515625 0.0820312 7.109375 -0.34375 C 7.890625 -0.882812 8.429688 -1.410156 8.734375 -1.921875 C 9.535156 -3.191406 10.035156 -4.257812 10.234375 -5.125 C 10.484375 -6.21875 10.648438 -7.734375 10.734375 -9.671875 L 10.828125 -12.1875 L 10.875 -14.6875 L 10.984375 -16.640625 L 11.109375 -18.5625 L 11.25 -20.015625 L 11.296875 -21.421875 L 11.328125 -23.640625 L 11.296875 -25.890625 L 11.171875 -28.796875 C 11.097656 -29.890625 11.007812 -30.851562 10.90625 -31.6875 L 10.828125 -32.65625 L 11.25 -31.828125 L 11.59375 -31 L 12.34375 -29.3125 C 13.59375 -26.625 14.847656 -24.359375 16.109375 -22.515625 L 16.71875 -21.6875 L 17.3125 -20.84375 C 17.582031 -20.414062 17.9375 -19.953125 18.375 -19.453125 L 19 -18.8125 L 19.609375 -18.171875 C 19.910156 -17.847656 20.210938 -17.710938 20.515625 -17.765625 C 21.296875 -17.890625 21.847656 -18.140625 22.171875 -18.515625 C 22.847656 -19.316406 23.394531 -20.132812 23.8125 -20.96875 L 24.578125 -22.625 C 24.742188 -22.925781 24.867188 -23.25 24.953125 -23.59375 L 26.046875 -27.6875 L 26.828125 -30.375 C 26.878906 -29.164062 26.878906 -27.910156 26.828125 -26.609375 L 26.75 -24.09375 L 26.75 -21.59375 C 26.875 -19.519531 26.898438 -17.726562 26.828125 -16.21875 L 26.859375 -15.515625 C 27.035156 -14.347656 27.066406 -13.175781 26.953125 -12 L 26.9375 -11.296875 C 27.019531 -10.359375 27.019531 -8.953125 26.9375 -7.078125 C 26.894531 -6.328125 26.921875 -5.609375 27.015625 -4.921875 C 27.140625 -4.066406 27.304688 -3.28125 27.515625 -2.5625 C 27.765625 -1.707031 27.8125 -0.5 27.65625 1.0625 L 27.4375 3.765625 L 27.28125 6.4375 C 27.1875 7.632812 27.71875 8.195312 28.875 8.125 C 29.550781 8.070312 30.378906 8.148438 31.359375 8.359375 L 32.625 8.578125 C 33.90625 8.785156 35.035156 8.570312 36.015625 7.9375 C 36.835938 7.40625 37.398438 6.804688 37.703125 6.140625 C 38.410156 4.523438 38.816406 3.03125 38.921875 1.65625 C 38.992188 0.820312 39.023438 -0.328125 39.015625 -1.796875 L 39.015625 -3.5 L 39.03125 -5.203125 Z M 38.984375 -5.671875 "/></g></g></g><g fill="#ffffff" fill-opacity="1"><g transform="translate(352.853667, 167.366991)"><g><path d="M 12.75 -29.3125 C 12.507812 -28.5625 12.3125 -27.707031 12.15625 -26.75 L 11.84375 -24.203125 L 11.65625 -22.28125 C 11.5625 -21.550781 11.453125 -20.910156 11.328125 -20.359375 L 11.25 -19.765625 C 11.207031 -19.460938 11.34375 -19.3125 11.65625 -19.3125 C 11.882812 -19.3125 12.113281 -19.335938 12.34375 -19.390625 L 14.859375 -19.953125 C 15.390625 -20.078125 15.582031 -20.425781 15.4375 -21 L 15.203125 -21.859375 L 14.484375 -24.015625 L 13.921875 -25.859375 L 13.328125 -27.734375 L 13.0625 -28.515625 Z M 0.296875 -0.046875 L 0.328125 -0.9375 C 0.304688 -1.289062 0.320312 -1.691406 0.375 -2.140625 C 0.445312 -2.597656 0.484375 -3.0625 0.484375 -3.53125 C 0.429688 -4.789062 0.570312 -6.640625 0.90625 -9.078125 L 1.234375 -11.859375 L 1.546875 -15.046875 L 1.875 -18.1875 L 2.1875 -20.28125 L 2.515625 -23.53125 L 2.859375 -26.828125 L 3.078125 -28.59375 L 3.3125 -30.375 L 3.53125 -32.03125 L 3.765625 -33.6875 C 3.941406 -35.007812 4.039062 -36.113281 4.0625 -37 L 4.140625 -37.640625 L 4.25 -38.28125 L 4.65625 -41.65625 C 4.707031 -42.15625 4.921875 -42.46875 5.296875 -42.59375 C 5.804688 -42.78125 6.238281 -43.160156 6.59375 -43.734375 L 6.765625 -43.953125 L 6.921875 -44.140625 C 7.117188 -44.335938 7.296875 -44.363281 7.453125 -44.21875 C 7.628906 -44.09375 7.894531 -43.957031 8.25 -43.8125 L 8.6875 -43.65625 L 9.0625 -43.4375 C 9.394531 -43.207031 9.800781 -43.082031 10.28125 -43.0625 C 11.457031 -43.050781 12.332031 -42.394531 12.90625 -41.09375 C 13.632812 -39.4375 14.4375 -37.039062 15.3125 -33.90625 L 15.84375 -32.09375 L 16.328125 -30.265625 L 16.59375 -29.5 L 16.859375 -28.75 L 17.359375 -27.203125 L 17.875 -25.625 C 18.300781 -24.34375 18.613281 -23.289062 18.8125 -22.46875 C 18.988281 -21.8125 19.253906 -21.132812 19.609375 -20.4375 L 19.984375 -19.5 L 20.3125 -18.5625 L 21.640625 -15.234375 L 21.796875 -14.90625 L 21.875 -14.59375 C 21.914062 -14.050781 22.0625 -13.460938 22.3125 -12.828125 L 22.625 -12.015625 L 23 -11.1875 C 23.320312 -10.507812 23.660156 -9.710938 24.015625 -8.796875 L 24.90625 -6.359375 C 25.1875 -5.585938 25.523438 -4.757812 25.921875 -3.875 C 26.148438 -3.34375 26.304688 -2.773438 26.390625 -2.171875 C 26.429688 -1.921875 26.429688 -1.648438 26.390625 -1.359375 C 26.304688 -0.679688 25.914062 -0.289062 25.21875 -0.1875 C 24.914062 -0.132812 24.6875 -0.222656 24.53125 -0.453125 L 23.890625 -1.328125 L 23.25 -2.21875 C 22.726562 -2.914062 22.34375 -3.539062 22.09375 -4.09375 L 21.046875 -6.21875 L 20.03125 -8.359375 C 19.289062 -10.003906 18.6875 -11.46875 18.21875 -12.75 L 17.53125 -14.71875 L 16.828125 -16.703125 L 16.75 -16.96875 L 16.640625 -17.265625 C 16.515625 -17.578125 16.257812 -17.707031 15.875 -17.65625 C 14.425781 -17.457031 13.265625 -17.414062 12.390625 -17.53125 C 11.785156 -17.613281 11.382812 -17.578125 11.1875 -17.421875 C 11 -17.265625 10.859375 -16.878906 10.765625 -16.265625 L 9.109375 -5.84375 L 8.84375 -4.5625 L 8.234375 -1.953125 C 7.910156 -0.347656 7.4375 0.914062 6.8125 1.84375 C 6.65625 2.09375 6.53125 2.441406 6.4375 2.890625 C 6.332031 3.453125 5.96875 3.96875 5.34375 4.4375 C 4.71875 4.882812 4.113281 5.085938 3.53125 5.046875 L 2.25 5 C 1.90625 5.007812 1.582031 4.921875 1.28125 4.734375 L 0.90625 4.4375 L 0.53125 4.09375 C 0.175781 3.75 0.015625 3.257812 0.046875 2.625 Z M 0.296875 -0.046875 "/></g></g></g><g fill="#ffffff" fill-opacity="1"><g transform="translate(384.372066, 167.366991)"><g><path d="M 21.328125 -15.875 C 21.390625 -17.664062 21.359375 -19.035156 21.234375 -19.984375 C 21.179688 -20.515625 21.148438 -21.15625 21.140625 -21.90625 L 21.15625 -23.828125 L 21.15625 -25.359375 C 21.070312 -28.328125 21.070312 -31.679688 21.15625 -35.421875 L 21.296875 -37.484375 L 21.484375 -39.5625 L 21.5625 -42.078125 C 21.582031 -42.703125 21.632812 -43.210938 21.71875 -43.609375 C 21.8125 -43.890625 21.9375 -44.144531 22.09375 -44.375 C 22.320312 -44.695312 22.609375 -44.8125 22.953125 -44.71875 L 25.703125 -44.0625 C 26.203125 -43.9375 26.65625 -43.710938 27.0625 -43.390625 C 27.363281 -43.117188 27.628906 -42.921875 27.859375 -42.796875 C 28.628906 -42.390625 29.164062 -41.6875 29.46875 -40.6875 L 30.453125 -36.984375 C 30.546875 -36.640625 30.601562 -36.28125 30.625 -35.90625 L 30.703125 -32.515625 L 30.78125 -30.109375 L 30.8125 -27.703125 C 30.863281 -25.359375 30.804688 -23.539062 30.640625 -22.25 L 30.625 -22.046875 L 30.625 -21.828125 C 30.632812 -21.679688 30.738281 -21.59375 30.9375 -21.5625 L 31 -21.453125 L 31.046875 -21.265625 L 31.015625 -20.734375 L 30.59375 -16.59375 L 30.53125 -16.4375 C 30.519531 -16.394531 30.476562 -16.394531 30.40625 -16.4375 C 30.40625 -16.4375 30.328125 -16.539062 30.171875 -16.75 L 29.953125 -15.359375 L 29.765625 -14 C 29.617188 -12.820312 29.582031 -11.804688 29.65625 -10.953125 C 29.726562 -9.972656 29.648438 -8.816406 29.421875 -7.484375 L 29.28125 -6.171875 L 29.234375 -5.609375 C 29.066406 -4.648438 28.503906 -4.257812 27.546875 -4.4375 C 26.015625 -4.71875 24.863281 -5.035156 24.09375 -5.390625 C 23.132812 -5.835938 22.488281 -6.550781 22.15625 -7.53125 L 21.859375 -8.234375 L 21.5625 -8.953125 C 21.3125 -9.503906 21.160156 -9.984375 21.109375 -10.390625 L 21 -10.65625 L 20.859375 -10.90625 L 17.53125 -16.40625 C 17.226562 -16.925781 16.863281 -17.601562 16.4375 -18.4375 L 14.328125 -22.765625 L 13.6875 -24.078125 L 13.015625 -25.40625 L 12.5625 -26.296875 L 12.078125 -27.140625 L 12 -27.203125 L 11.890625 -27.25 C 11.796875 -27.21875 11.75 -27.144531 11.75 -27.03125 L 11.78125 -26.796875 L 12.15625 -23.90625 L 12.53125 -21.046875 C 12.800781 -19.335938 12.851562 -17.992188 12.6875 -17.015625 C 12.65625 -16.734375 12.664062 -16.367188 12.71875 -15.921875 L 12.796875 -14.671875 L 12.75 -13.40625 C 12.707031 -12.445312 12.570312 -11.238281 12.34375 -9.78125 L 12.078125 -7.96875 L 11.8125 -6.140625 C 11.738281 -5.585938 11.601562 -4.929688 11.40625 -4.171875 L 10.828125 -2.25 L 10.3125 -0.453125 C 10.1875 0.0234375 9.882812 0.3125 9.40625 0.40625 L 9.078125 0.453125 C 8.347656 0.421875 7.679688 0.65625 7.078125 1.15625 C 6.722656 1.4375 6.347656 1.378906 5.953125 0.984375 C 5.773438 0.804688 5.535156 0.640625 5.234375 0.484375 L 4.375 0.03125 C 3.9375 -0.1875 3.632812 -0.582031 3.46875 -1.15625 L 2.828125 -3.46875 L 2.1875 -5.796875 L 1.765625 -7.71875 C 1.640625 -8.4375 1.578125 -9.085938 1.578125 -9.671875 C 1.597656 -10.296875 1.578125 -11.0625 1.515625 -11.96875 L 1.359375 -14.234375 L 1.234375 -17.359375 C 1.179688 -18.554688 1.082031 -19.59375 0.9375 -20.46875 L 0.859375 -21.15625 L 0.828125 -21.875 L 0.453125 -25.8125 L 0.21875 -28.140625 L 0.109375 -30.484375 C 0.0351562 -34.546875 0.046875 -37.972656 0.140625 -40.765625 L 0.234375 -43.234375 C 0.296875 -44.222656 0.316406 -45.039062 0.296875 -45.6875 C 0.273438 -46.269531 0.566406 -46.671875 1.171875 -46.890625 L 2.265625 -47.21875 L 3.46875 -47.5625 C 3.988281 -47.664062 4.566406 -47.609375 5.203125 -47.390625 L 6.015625 -47.078125 L 6.8125 -46.734375 C 7.4375 -46.484375 7.914062 -45.96875 8.25 -45.1875 L 8.765625 -44.03125 C 8.960938 -43.570312 9.097656 -43.171875 9.171875 -42.828125 C 9.222656 -42.628906 9.328125 -42.441406 9.484375 -42.265625 C 9.835938 -41.835938 10.007812 -41.332031 10 -40.75 C 9.957031 -39.769531 10.3125 -38.753906 11.0625 -37.703125 C 11.382812 -37.273438 11.734375 -36.675781 12.109375 -35.90625 L 13.953125 -32.109375 L 15.703125 -28.296875 L 16.8125 -25.859375 C 17.195312 -24.921875 17.515625 -24.085938 17.765625 -23.359375 C 18.265625 -21.859375 18.96875 -20.21875 19.875 -18.4375 L 20.390625 -17.359375 L 20.890625 -16.265625 L 21 -16.0625 C 21.070312 -15.988281 21.179688 -15.925781 21.328125 -15.875 Z M 21.328125 -15.875 "/></g></g></g></svg>