<svg xmlns="http://www.w3.org/2000/svg" xmlns:xlink="http://www.w3.org/1999/xlink" width="150" zoomAndPan="magnify" viewBox="0 0 112.5 112.499997" height="150" preserveAspectRatio="xMidYMid meet" version="1.0"><defs><clipPath id="5caeb7ed80"><path d="M 55 14.035156 L 75.886719 14.035156 L 75.886719 87 L 55 87 Z M 55 14.035156 " clip-rule="nonzero"/></clipPath><clipPath id="045c296aab"><path d="M 37 14.035156 L 57 14.035156 L 57 88 L 37 88 Z M 37 14.035156 " clip-rule="nonzero"/></clipPath><clipPath id="8add8640e8"><path d="M 54 76 L 60 76 L 60 97.660156 L 54 97.660156 Z M 54 76 " clip-rule="nonzero"/></clipPath></defs><g clip-path="url(#5caeb7ed80)"><path fill="#599636" d="M 55.96875 14.261719 L 58.222656 18.453125 C 58.726562 19.226562 59.277344 19.910156 59.921875 20.546875 C 61.808594 22.417969 63.597656 24.375 65.207031 26.46875 C 69.023438 31.4375 71.59375 36.949219 73.433594 42.914062 C 74.535156 46.558594 75.132812 50.292969 75.179688 54.074219 C 75.363281 65.371094 71.457031 75.070312 63.578125 83.132812 C 62.289062 84.410156 60.914062 85.589844 59.4375 86.640625 C 58.65625 86.640625 58.289062 86.046875 57.964844 85.5 C 57.367188 84.5 57 83.359375 56.816406 82.222656 C 56.539062 80.855469 56.355469 79.488281 56.445312 78.078125 L 56.445312 77.4375 C 56.382812 77.304688 55.695312 14.582031 55.96875 14.261719 Z M 55.96875 14.261719 " fill-opacity="1" fill-rule="nonzero"/></g><g clip-path="url(#045c296aab)"><path fill="#6cac48" d="M 55.96875 14.121094 C 55.878906 13.9375 55.785156 14.078125 55.691406 14.167969 C 55.738281 15.082031 55.414062 15.898438 54.914062 16.675781 C 54.359375 17.449219 53.625 18.042969 52.890625 18.679688 C 48.800781 22.1875 45.585938 26.421875 43.007812 31.160156 C 39.582031 37.539062 37.816406 44.371094 37.3125 51.566406 C 37.085938 54.160156 38.140625 63.320312 38.96875 65.960938 C 41.21875 72.976562 45.265625 78.851562 50.503906 83.953125 C 51.789062 85.183594 53.167969 86.320312 54.589844 87.417969 C 55.003906 87.417969 55.050781 87.050781 55.144531 86.78125 C 55.324219 86.195312 55.464844 85.605469 55.558594 85.003906 L 56.480469 78.171875 Z M 55.96875 14.121094 " fill-opacity="1" fill-rule="nonzero"/></g><g clip-path="url(#8add8640e8)"><path fill="#c2bfbf" d="M 58.222656 89.417969 C 58.3125 88.371094 58.820312 87.503906 59.371094 86.636719 C 58.816406 86.410156 58.40625 85.957031 58.085938 85.453125 C 57.808594 85 57.578125 84.453125 57.398438 83.953125 C 56.753906 82.039062 56.617188 80.03125 56.433594 78.078125 L 56.433594 76.894531 C 56.203125 77.074219 56.15625 78.625 56.15625 78.851562 C 56.023438 80.921875 55.746094 82.972656 55.328125 85.003906 C 55.191406 85.824219 55.097656 86.640625 54.589844 87.371094 C 54.589844 87.460938 54.589844 87.554688 54.636719 87.6875 C 55.464844 90.105469 55.691406 92.5625 55.828125 95.070312 L 55.828125 95.984375 C 55.828125 97.078125 55.785156 96.847656 56.699219 97.210938 C 57.070312 97.347656 57.480469 97.394531 57.851562 97.667969 C 58.125 97.667969 58.171875 97.441406 58.171875 97.257812 L 58.035156 95.753906 L 58.035156 91.5625 C 57.988281 90.832031 58.125 90.105469 58.21875 89.417969 Z M 58.222656 89.417969 " fill-opacity="1" fill-rule="nonzero"/></g></svg>