<svg xmlns="http://www.w3.org/2000/svg" xmlns:xlink="http://www.w3.org/1999/xlink" width="150" zoomAndPan="magnify" viewBox="0 0 112.5 112.499997" height="150" preserveAspectRatio="xMidYMid meet" version="1.0"><defs><clipPath id="a4ed864b1a"><path d="M 1.074219 1 L 110.835938 1 L 110.835938 111 L 1.074219 111 Z M 1.074219 1 " clip-rule="nonzero"/></clipPath><clipPath id="9ce50bf6aa"><path d="M 44.390625 44.390625 L 67.539062 44.390625 L 67.539062 67.539062 L 44.390625 67.539062 Z M 44.390625 44.390625 " clip-rule="nonzero"/></clipPath></defs><g clip-path="url(#a4ed864b1a)"><path fill="#ffffff" d="M 55.996094 1.078125 C 25.664062 1.078125 1.074219 25.667969 1.074219 56 C 1.074219 86.332031 25.664062 110.921875 55.996094 110.921875 C 86.328125 110.921875 110.917969 86.332031 110.917969 56 C 110.917969 25.667969 86.328125 1.078125 55.996094 1.078125 Z M 10.226562 56 C 10.226562 30.722656 30.71875 10.230469 55.996094 10.230469 C 81.273438 10.230469 101.765625 30.722656 101.765625 56 C 101.765625 76.597656 88.15625 94.015625 69.441406 99.761719 C 69.953125 90.511719 69.777344 84.78125 68.917969 82.570312 C 68.007812 80.238281 67.265625 79.28125 66.820312 78.710938 C 66.527344 78.335938 66.363281 78.125 66.363281 77.796875 C 66.363281 77.246094 66.75 76.847656 67.523438 76.601562 C 74.269531 75.113281 78.789062 70.96875 81.089844 64.167969 C 84.277344 54.75 79.730469 47.902344 77.886719 45.128906 C 77.734375 44.902344 77.601562 44.699219 77.492188 44.527344 C 76.0625 42.269531 77.9375 36.769531 80.175781 32.367188 C 72.5625 30.839844 69.652344 34.378906 67.984375 36.410156 C 67.304688 37.238281 66.828125 37.8125 66.324219 37.691406 C 65.875 37.582031 65.390625 37.367188 64.8125 37.113281 C 63.148438 36.382812 60.695312 35.304688 55.996094 35.304688 C 50.167969 35.304688 46.304688 37.339844 45.714844 37.652344 C 45.664062 37.679688 45.636719 37.691406 45.636719 37.691406 C 42.574219 33.421875 38.222656 31.648438 32.585938 32.367188 C 34.136719 38.574219 34.253906 42.625 32.933594 44.527344 C 30.957031 47.378906 27.246094 54.015625 30.125 64.167969 C 33.003906 74.324219 43.492188 76.601562 45.484375 76.601562 L 45.5 76.605469 C 45.65625 76.640625 47.125 76.957031 46.683594 78.199219 C 46.597656 78.527344 46.542969 78.976562 46.476562 79.484375 C 46.269531 81.109375 45.984375 83.316406 44.425781 84.035156 C 42.382812 84.976562 37.871094 85.492188 35.984375 84.316406 C 35.355469 83.925781 34.90625 83.105469 34.363281 82.117188 C 33.273438 80.144531 31.816406 77.496094 27.828125 76.265625 C 21.847656 74.417969 22.222656 76.859375 23.714844 77.460938 C 24.042969 77.589844 24.480469 77.714844 24.976562 77.855469 C 26.738281 78.355469 29.269531 79.074219 30.570312 81.160156 C 30.949219 81.773438 31.339844 82.445312 31.742188 83.128906 C 33.09375 85.445312 34.539062 87.925781 35.984375 88.875 C 37.234375 89.699219 40.230469 90.027344 44.972656 89.863281 C 44.765625 94.339844 44.65625 97.832031 44.640625 100.347656 C 24.855469 95.296875 10.226562 77.359375 10.226562 56 Z M 10.226562 56 " fill-opacity="0.85" fill-rule="evenodd"/></g><g clip-path="url(#9ce50bf6aa)"><path fill="#e3e3e3" d="M 56 67.609375 C 49.585938 67.609375 44.390625 62.378906 44.390625 56 C 44.390625 49.625 49.585938 44.390625 56 44.390625 C 62.414062 44.390625 67.609375 49.585938 67.609375 56 C 67.609375 62.414062 62.378906 67.609375 56 67.609375 Z M 56 45.109375 C 49.980469 45.109375 45.109375 49.980469 45.109375 56 C 45.109375 62.019531 49.980469 66.894531 56 66.894531 C 62.019531 66.894531 66.894531 62.019531 66.894531 56 C 66.894531 49.980469 61.984375 45.109375 56 45.109375 Z M 56 45.109375 " fill-opacity="1" fill-rule="nonzero"/></g></svg>