<svg xmlns="http://www.w3.org/2000/svg" xmlns:xlink="http://www.w3.org/1999/xlink" width="150" zoomAndPan="magnify" viewBox="0 0 112.5 112.499997" height="150" preserveAspectRatio="xMidYMid meet" version="1.0"><defs><clipPath id="7d3e47f9b0"><path d="M 90 51 L 106.792969 51 L 106.792969 70 L 90 70 Z M 90 51 " clip-rule="nonzero"/></clipPath><clipPath id="4f8e28552c"><path d="M 5.242188 41.789062 L 85 41.789062 L 85 70.164062 L 5.242188 70.164062 Z M 5.242188 41.789062 " clip-rule="nonzero"/></clipPath></defs><g clip-path="url(#7d3e47f9b0)"><path fill="#83cd29" d="M 98.167969 51.832031 C 97.925781 51.832031 97.6875 51.882812 97.476562 52 L 90.816406 55.839844 C 90.386719 56.085938 90.125 56.554688 90.125 57.050781 L 90.125 64.714844 C 90.125 65.210938 90.386719 65.679688 90.816406 65.925781 L 92.558594 66.925781 C 93.402344 67.34375 93.714844 67.335938 94.097656 67.335938 C 95.347656 67.335938 96.0625 66.578125 96.0625 65.261719 L 96.0625 57.703125 C 96.0625 57.597656 95.96875 57.519531 95.863281 57.519531 L 95.03125 57.519531 C 94.925781 57.519531 94.832031 57.597656 94.832031 57.703125 L 94.832031 65.265625 C 94.832031 65.847656 94.222656 66.4375 93.234375 65.941406 L 91.429688 64.882812 C 91.363281 64.847656 91.316406 64.785156 91.316406 64.714844 L 91.316406 57.054688 C 91.316406 56.980469 91.363281 56.90625 91.429688 56.871094 L 98.074219 53.046875 C 98.132812 53.011719 98.207031 53.011719 98.269531 53.046875 L 104.914062 56.871094 C 104.976562 56.90625 105.027344 56.980469 105.027344 57.054688 L 105.027344 64.714844 C 105.027344 64.789062 104.992188 64.863281 104.929688 64.898438 L 98.269531 68.722656 C 98.210938 68.757812 98.132812 68.757812 98.074219 68.722656 L 96.363281 67.707031 C 96.3125 67.675781 96.242188 67.679688 96.191406 67.707031 C 95.71875 67.972656 95.632812 68.003906 95.1875 68.15625 C 95.078125 68.195312 94.914062 68.253906 95.246094 68.441406 L 97.480469 69.753906 C 97.691406 69.875 97.929688 69.9375 98.171875 69.9375 C 98.417969 69.9375 98.652344 69.878906 98.863281 69.753906 L 105.523438 65.929688 C 105.953125 65.679688 106.214844 65.214844 106.214844 64.71875 L 106.214844 57.054688 C 106.214844 56.558594 105.953125 56.089844 105.523438 55.84375 L 98.863281 52.003906 C 98.65625 51.886719 98.417969 51.835938 98.171875 51.835938 Z M 99.949219 57.304688 C 98.054688 57.304688 96.925781 58.113281 96.925781 59.449219 C 96.925781 60.902344 98.046875 61.304688 99.867188 61.480469 C 102.042969 61.695312 102.210938 62.015625 102.210938 62.441406 C 102.210938 63.183594 101.621094 63.5 100.21875 63.5 C 98.460938 63.5 98.074219 63.0625 97.941406 62.1875 C 97.929688 62.09375 97.855469 62.015625 97.757812 62.015625 L 96.894531 62.015625 C 96.765625 62.019531 96.699219 62.085938 96.695312 62.214844 C 96.695312 63.332031 97.308594 64.65625 100.21875 64.65625 C 102.324219 64.65625 103.539062 63.832031 103.539062 62.382812 C 103.539062 60.953125 102.558594 60.566406 100.515625 60.296875 C 98.449219 60.019531 98.253906 59.890625 98.253906 59.40625 C 98.253906 59.007812 98.417969 58.476562 99.949219 58.476562 C 101.316406 58.476562 101.820312 58.769531 102.027344 59.6875 C 102.046875 59.773438 102.121094 59.84375 102.210938 59.84375 L 103.074219 59.84375 C 103.128906 59.84375 103.179688 59.8125 103.214844 59.773438 C 103.253906 59.734375 103.277344 59.6875 103.273438 59.632812 C 103.140625 58.050781 102.082031 57.304688 99.949219 57.304688 Z M 99.949219 57.304688 " fill-opacity="1" fill-rule="nonzero"/></g><g clip-path="url(#4f8e28552c)"><path fill="#404137" d="M 59.023438 41.789062 C 58.949219 41.789062 58.878906 41.808594 58.8125 41.84375 C 58.671875 41.925781 58.601562 42.050781 58.601562 42.210938 L 58.601562 53.003906 C 58.601562 53.109375 58.550781 53.207031 58.457031 53.257812 C 58.359375 53.316406 58.261719 53.316406 58.160156 53.257812 L 56.394531 52.242188 C 56.113281 52.082031 55.828125 52.082031 55.546875 52.242188 L 48.492188 56.308594 C 48.230469 56.457031 48.070312 56.75 48.070312 57.054688 L 48.070312 65.179688 C 48.066406 65.507812 48.210938 65.75 48.492188 65.914062 L 55.546875 69.976562 C 55.828125 70.140625 56.113281 70.140625 56.394531 69.976562 L 63.449219 65.914062 C 63.734375 65.75 63.875 65.507812 63.875 65.179688 L 63.875 44.921875 C 63.875 44.613281 63.703125 44.324219 63.433594 44.171875 L 59.238281 41.832031 C 59.171875 41.792969 59.097656 41.785156 59.023438 41.789062 Z M 13.644531 51.933594 C 13.511719 51.9375 13.382812 51.960938 13.261719 52.03125 L 6.210938 56.09375 C 5.925781 56.257812 5.785156 56.503906 5.785156 56.828125 L 5.800781 67.734375 C 5.800781 67.886719 5.878906 68.027344 6.011719 68.101562 C 6.144531 68.179688 6.304688 68.179688 6.433594 68.101562 L 10.621094 65.703125 C 10.886719 65.546875 11.058594 65.273438 11.058594 64.96875 L 11.058594 59.875 C 11.058594 59.570312 11.21875 59.292969 11.484375 59.140625 L 13.265625 58.113281 C 13.394531 58.035156 13.535156 58 13.6875 58 C 13.839844 58 13.980469 58.035156 14.113281 58.113281 L 15.894531 59.140625 C 16.15625 59.292969 16.316406 59.570312 16.316406 59.875 L 16.316406 64.96875 C 16.316406 65.273438 16.492188 65.546875 16.753906 65.703125 L 20.9375 68.101562 C 21.070312 68.179688 21.234375 68.179688 21.363281 68.101562 C 21.492188 68.027344 21.574219 67.886719 21.574219 67.734375 L 21.589844 56.828125 C 21.589844 56.5 21.449219 56.257812 21.164062 56.09375 L 14.113281 52.03125 C 13.992188 51.960938 13.867188 51.9375 13.730469 51.933594 Z M 77.035156 52.03125 C 76.882812 52.03125 76.742188 52.070312 76.609375 52.144531 L 69.554688 56.207031 C 69.292969 56.359375 69.128906 56.636719 69.128906 56.941406 L 69.128906 65.066406 C 69.128906 65.375 69.304688 65.652344 69.570312 65.800781 L 76.566406 69.78125 C 76.824219 69.929688 77.140625 69.941406 77.402344 69.796875 L 81.640625 67.441406 C 81.777344 67.363281 81.867188 67.226562 81.867188 67.074219 C 81.867188 66.921875 81.789062 66.78125 81.65625 66.707031 L 74.558594 62.644531 C 74.425781 62.566406 74.332031 62.414062 74.332031 62.261719 L 74.332031 59.71875 C 74.332031 59.570312 74.425781 59.429688 74.558594 59.355469 L 76.765625 58.082031 C 76.894531 58.007812 77.054688 58.007812 77.1875 58.082031 L 79.398438 59.355469 C 79.539062 59.433594 79.609375 59.558594 79.609375 59.71875 L 79.609375 61.722656 C 79.609375 61.886719 79.679688 62.007812 79.824219 62.089844 C 79.953125 62.167969 80.113281 62.167969 80.246094 62.089844 L 84.472656 59.636719 C 84.734375 59.484375 84.898438 59.203125 84.898438 58.902344 L 84.898438 56.941406 C 84.898438 56.617188 84.757812 56.371094 84.472656 56.207031 L 77.460938 52.144531 C 77.332031 52.070312 77.1875 52.03125 77.039062 52.03125 Z M 55.941406 58.097656 C 55.980469 58.097656 56.019531 58.109375 56.054688 58.125 L 58.472656 59.523438 C 58.539062 59.5625 58.585938 59.632812 58.585938 59.707031 L 58.585938 62.5 C 58.585938 62.578125 58.539062 62.644531 58.472656 62.683594 L 56.054688 64.082031 C 55.988281 64.117188 55.910156 64.117188 55.84375 64.082031 L 53.425781 62.683594 C 53.359375 62.644531 53.3125 62.574219 53.3125 62.5 L 53.3125 59.707031 C 53.3125 59.632812 53.359375 59.5625 53.425781 59.523438 L 55.84375 58.128906 C 55.875 58.109375 55.90625 58.101562 55.941406 58.101562 Z M 55.941406 58.097656 " fill-opacity="1" fill-rule="nonzero"/></g><path fill="#83cd29" d="M 34.835938 51.988281 C 34.683594 51.988281 34.542969 52.027344 34.410156 52.101562 L 27.355469 56.152344 C 27.09375 56.304688 26.933594 56.59375 26.933594 56.898438 L 26.933594 65.027344 C 26.933594 65.351562 27.074219 65.597656 27.355469 65.757812 L 34.410156 69.824219 C 34.695312 69.984375 34.976562 69.984375 35.257812 69.824219 L 42.3125 65.757812 C 42.597656 65.597656 42.738281 65.351562 42.738281 65.027344 L 42.738281 56.898438 C 42.738281 56.59375 42.578125 56.304688 42.3125 56.152344 L 35.257812 52.101562 C 35.128906 52.027344 34.984375 51.988281 34.835938 51.988281 Z M 77.019531 59.242188 C 76.992188 59.242188 76.960938 59.242188 76.933594 59.253906 L 75.578125 60.046875 C 75.523438 60.074219 75.496094 60.121094 75.492188 60.1875 L 75.492188 61.738281 C 75.492188 61.796875 75.527344 61.851562 75.578125 61.878906 L 76.933594 62.65625 C 76.988281 62.6875 77.039062 62.6875 77.089844 62.65625 L 78.449219 61.878906 C 78.496094 61.851562 78.53125 61.796875 78.53125 61.738281 L 78.53125 60.1875 C 78.53125 60.128906 78.496094 60.074219 78.449219 60.046875 L 77.089844 59.253906 C 77.066406 59.238281 77.046875 59.242188 77.019531 59.242188 Z M 77.019531 59.242188 " fill-opacity="1" fill-rule="nonzero"/></svg>