<svg xmlns="http://www.w3.org/2000/svg" xmlns:xlink="http://www.w3.org/1999/xlink" width="150" zoomAndPan="magnify" viewBox="0 0 112.5 112.499997" height="150" preserveAspectRatio="xMidYMid meet" version="1.0"><defs><clipPath id="b13f40cbcf"><path d="M 13.527344 18 L 100.890625 18 L 100.890625 93 L 13.527344 93 Z M 13.527344 18 " clip-rule="nonzero"/></clipPath><clipPath id="81d29272bb"><path d="M 13.527344 15.140625 L 100.890625 15.140625 L 100.890625 96.53125 L 13.527344 96.53125 Z M 13.527344 15.140625 " clip-rule="nonzero"/></clipPath></defs><path fill="#00d8ff" d="M 65.011719 55.765625 C 65.011719 56.273438 64.960938 56.777344 64.863281 57.277344 C 64.761719 57.777344 64.613281 58.261719 64.417969 58.734375 C 64.222656 59.207031 63.980469 59.652344 63.695312 60.078125 C 63.410156 60.5 63.089844 60.890625 62.726562 61.253906 C 62.363281 61.613281 61.96875 61.933594 61.542969 62.21875 C 61.117188 62.5 60.667969 62.738281 60.195312 62.933594 C 59.722656 63.128906 59.234375 63.277344 58.730469 63.375 C 58.230469 63.476562 57.722656 63.527344 57.210938 63.527344 C 56.699219 63.527344 56.191406 63.476562 55.6875 63.375 C 55.1875 63.277344 54.699219 63.128906 54.226562 62.933594 C 53.75 62.738281 53.300781 62.5 52.875 62.21875 C 52.449219 61.933594 52.054688 61.613281 51.695312 61.253906 C 51.332031 60.890625 51.007812 60.5 50.722656 60.078125 C 50.4375 59.652344 50.199219 59.207031 50.003906 58.734375 C 49.808594 58.261719 49.660156 57.777344 49.558594 57.277344 C 49.457031 56.777344 49.410156 56.273438 49.410156 55.765625 C 49.410156 55.253906 49.457031 54.75 49.558594 54.25 C 49.660156 53.75 49.808594 53.265625 50.003906 52.792969 C 50.199219 52.324219 50.4375 51.875 50.722656 51.453125 C 51.007812 51.027344 51.332031 50.636719 51.695312 50.277344 C 52.054688 49.914062 52.449219 49.59375 52.875 49.308594 C 53.300781 49.027344 53.75 48.789062 54.226562 48.59375 C 54.699219 48.398438 55.1875 48.25 55.6875 48.152344 C 56.191406 48.050781 56.699219 48.003906 57.210938 48.003906 C 57.722656 48.003906 58.230469 48.050781 58.730469 48.152344 C 59.234375 48.25 59.722656 48.398438 60.195312 48.59375 C 60.667969 48.789062 61.117188 49.027344 61.542969 49.308594 C 61.96875 49.59375 62.363281 49.914062 62.726562 50.277344 C 63.089844 50.636719 63.410156 51.027344 63.695312 51.453125 C 63.980469 51.875 64.222656 52.324219 64.417969 52.792969 C 64.613281 53.265625 64.761719 53.75 64.863281 54.25 C 64.960938 54.75 65.011719 55.253906 65.011719 55.765625 Z M 65.011719 55.765625 " fill-opacity="1" fill-rule="nonzero"/><g clip-path="url(#b13f40cbcf)"><path stroke-linecap="butt" transform="matrix(0.155504, 0, 0, 0.154717, 15.297144, 18.998749)" fill="none" stroke-linejoin="miter" d="M 269.53536 135.639022 C 336.881952 135.639022 399.455753 145.283664 446.631024 161.543218 C 503.477476 181.110227 538.44445 210.776338 538.44445 237.639948 C 538.44445 265.61446 501.39252 297.123657 440.351036 317.347108 C 394.205683 332.647247 333.465638 340.625537 269.53536 340.625537 C 203.972284 340.625537 141.900882 333.126954 95.22801 317.195621 C 36.196122 296.997418 0.62627 265.084257 0.62627 237.639948 C 0.62627 210.97832 33.985567 181.564687 90.02818 162.022925 C 137.37929 145.510894 201.510529 135.639022 269.53536 135.639022 Z M 269.53536 135.639022 " stroke="#00d8ff" stroke-width="24" stroke-opacity="1" stroke-miterlimit="4"/></g><g clip-path="url(#81d29272bb)"><path stroke-linecap="butt" transform="matrix(0.155504, 0, 0, 0.154717, 15.297144, 18.998749)" fill="none" stroke-linejoin="miter" d="M 180.736328 186.917211 C 214.397064 128.569651 254.011229 79.210292 291.666038 46.438707 C 337.007552 6.976468 380.16363 -8.475158 403.424706 4.9314 C 427.66546 18.918655 436.482563 66.763149 423.495548 129.731048 C 413.698766 177.348312 390.261851 233.953776 358.309271 289.347349 C 325.577973 346.129547 288.073885 396.145348 250.946595 428.61396 C 203.972284 469.666808 158.53029 484.537735 134.766815 470.828205 C 111.681579 457.522638 102.864476 413.894519 113.917255 355.597455 C 123.286997 306.313839 146.749033 245.845468 180.736328 186.942458 Z M 180.736328 186.917211 " stroke="#00d8ff" stroke-width="24" stroke-opacity="1" stroke-miterlimit="4"/><path stroke-linecap="butt" transform="matrix(0.155504, 0, 0, 0.154717, 15.297144, 18.998749)" fill="none" stroke-linejoin="miter" d="M 180.811688 289.473587 C 147.075592 231.201771 124.090836 172.19777 114.520134 123.242375 C 102.964956 64.238374 111.12894 19.120637 134.364896 5.663584 C 158.60565 -8.374167 204.424443 7.910634 252.504032 50.604587 C 288.877723 82.871216 326.205972 131.447895 358.233911 186.765724 C 391.065689 243.497427 415.683242 300.986563 425.279064 349.36126 C 437.386881 410.561816 427.5901 457.320656 403.826625 471.080682 C 380.766509 484.436744 338.564989 470.298002 293.575154 431.593195 C 255.568666 398.872106 214.899463 348.326102 180.811688 289.473587 Z M 180.811688 289.473587 " stroke="#00d8ff" stroke-width="24" stroke-opacity="1" stroke-miterlimit="4"/></g></svg>